<svg xmlns="http://www.w3.org/2000/svg" viewBox="0 0 77 92.85"><defs><style>.cls-1{fill:#39b54a;}</style></defs><title>icon_tintucsukien</title><g id="Layer_2" data-name="Layer 2"><g id="Layer_1-2" data-name="Layer 1"><path class="cls-1" d="M17.54,19.16H6.44A34.94,34.94,0,0,0,3.16,31.83H15.07A44.56,44.56,0,0,1,17.54,19.16Z"/><path class="cls-1" d="M67.78,14.29A35.61,35.61,0,0,0,47.57,0a58.13,58.13,0,0,1,9.88,14.29Z"/><path class="cls-1" d="M17.84,49.36a44.72,44.72,0,0,1-2.72-12.67h-12A34.94,34.94,0,0,0,6.44,49.36Z"/><path class="cls-1" d="M40.93.12V14.29H52A58,58,0,0,0,40.93.12Z"/><path class="cls-1" d="M23.07,49.36h13V36.69H20A40.24,40.24,0,0,0,23.07,49.36Z"/><path class="cls-1" d="M36.07.17A57.78,57.78,0,0,0,25,14.29H36.07Z"/><path class="cls-1" d="M29.44,0A35.57,35.57,0,0,0,9.23,14.29H19.55A58.27,58.27,0,0,1,29.44,0Z"/><path class="cls-1" d="M19.93,31.83H36.07V19.16H22.73A39.87,39.87,0,0,0,19.93,31.83Z"/><path class="cls-1" d="M63.65,61a.78.78,0,0,1-.54-1.34,35.93,35.93,0,0,0,4.65-5.48H57a54.13,54.13,0,0,1-3.92,6.48.78.78,0,0,1-.64.34H48.43a.78.78,0,0,1-.62-1.25,55.74,55.74,0,0,0,3.73-5.57H40.93v6a.78.78,0,0,1-.78.78h-3.3a.78.78,0,0,1-.78-.78v-6H25.47a55.18,55.18,0,0,0,3.72,5.57A.78.78,0,0,1,28.57,61h-4a.78.78,0,0,1-.64-.34A53.79,53.79,0,0,1,20,54.23H9.24a36.27,36.27,0,0,0,4.65,5.48A.78.78,0,0,1,13.34,61,13.36,13.36,0,0,0,0,74.4v5.11A13.36,13.36,0,0,0,13.34,92.85H63.65A13.36,13.36,0,0,0,77,79.51V74.4A13.36,13.36,0,0,0,63.65,61ZM24.91,73.84l-.77.76c-.7.7-1.41,1.4-2.13,2.08a1.59,1.59,0,0,0-.48,1.54l.2,1.23c.15.93.3,1.86.47,2.79,0,.16,0,.18-.11.26a.4.4,0,0,1-.14-.05l-1.15-.61-2.48-1.31a1.53,1.53,0,0,0-1.58,0c-1.2.65-2.41,1.28-3.62,1.91a.34.34,0,0,1-.28,0s0-.07,0,0L13,81.14c.16-.94.31-1.9.48-2.85A1.68,1.68,0,0,0,13,76.65c-.58-.55-1.14-1.11-1.7-1.67l-1.12-1.11c-.17-.17-.16-.2-.12-.3a.64.64,0,0,1,.27-.07l1.37-.2,2.66-.38a1.49,1.49,0,0,0,1.22-.9c.33-.69.67-1.38,1-2.07l.78-1.58c.12-.24.17-.24.2-.24s.09,0,.22.26c.6,1.23,1.2,2.45,1.83,3.67a1.69,1.69,0,0,0,1.13.81c1.33.23,2.66.42,4.1.62.22,0,.23.06.24.11S25.08,73.68,24.91,73.84Zm21,0-.82.81c-.68.68-1.37,1.36-2.08,2a1.59,1.59,0,0,0-.48,1.55l.27,1.65c.13.79.26,1.58.4,2.37,0,.17,0,.18-.11.26a.4.4,0,0,1-.14-.05l-1-.53-2.63-1.39a1.62,1.62,0,0,0-.78-.21,1.58,1.58,0,0,0-.79.22c-1.2.65-2.41,1.28-3.62,1.91a.36.36,0,0,1-.28,0s0-.07,0,0L34,81c.15-.91.3-1.83.46-2.74a1.67,1.67,0,0,0-.52-1.64c-.58-.55-1.15-1.12-1.72-1.69l-1.1-1.09c-.17-.17-.16-.21-.13-.3a.59.59,0,0,1,.27-.07l1.38-.2,2.64-.38a1.5,1.5,0,0,0,1.22-.9c.31-.66.64-1.32,1-2s.55-1.12.82-1.67c.12-.24.18-.24.2-.24s.1,0,.22.26l.26.54c.51,1,1,2.09,1.57,3.13a1.69,1.69,0,0,0,1.13.81c1.32.22,2.64.41,4,.6l.13,0c.22,0,.23.06.24.11S46,73.68,45.88,73.84Zm21,0-.78.78c-.7.69-1.4,1.39-2.1,2.05a1.6,1.6,0,0,0-.49,1.55l.23,1.4c.14.87.29,1.75.44,2.62,0,.17,0,.18-.11.26a.4.4,0,0,1-.14-.05L63,82l-2.74-1.45a1.61,1.61,0,0,0-.78-.21,1.59,1.59,0,0,0-.79.22c-1.2.65-2.42,1.28-3.62,1.91a.36.36,0,0,1-.28,0s0-.07,0,0l.16-1c.17-1.05.35-2.12.53-3.18a1.68,1.68,0,0,0-.52-1.64c-.58-.55-1.15-1.12-1.72-1.69l-1.11-1.09c-.17-.17-.16-.21-.12-.3a.62.62,0,0,1,.27-.07l1.35-.2,2.68-.38a1.48,1.48,0,0,0,1.22-.9c.33-.69.67-1.38,1-2.07l.78-1.58c.11-.24.17-.24.2-.24s.09,0,.22.26c.6,1.23,1.2,2.45,1.83,3.67a1.68,1.68,0,0,0,1.13.81c1.31.22,2.63.41,4,.6l.15,0c.22,0,.23.07.24.11S67,73.68,66.85,73.84Z"/><path class="cls-1" d="M73.85,31.83a35.05,35.05,0,0,0-3.29-12.67H59.46a44.27,44.27,0,0,1,2.47,12.67Z"/><path class="cls-1" d="M54.29,19.16H40.93V31.83H57.07A40.39,40.39,0,0,0,54.29,19.16Z"/><path class="cls-1" d="M59.16,49.36h11.4a35,35,0,0,0,3.29-12.67h-12A44.53,44.53,0,0,1,59.16,49.36Z"/><path class="cls-1" d="M57,36.69H40.93V49.36h13A39.9,39.9,0,0,0,57,36.69Z"/></g></g></svg>