<svg xmlns="http://www.w3.org/2000/svg" viewBox="0 0 77 86.8"><defs><style>.cls-1{fill:#40a840;}</style></defs><title>icon_sanpham</title><g id="Layer_2" data-name="Layer 2"><g id="Layer_1-2" data-name="Layer 1"><path class="cls-1" d="M47.81,50.11c-.08,1.32-.14,2.58-.26,3.83a1.33,1.33,0,0,1-.41.83,7.07,7.07,0,0,0,0,11.32c.81.65.19,1.45.32,2.17,0,.13-.46.43-.74.53q-4.42,1.56-8.85,3.07a8.87,8.87,0,0,1-5.88,0L7.93,63.52a4.17,4.17,0,0,1-3.09-4.39q0-6,0-12,0-3.2,3-2.14L27.6,52A3.18,3.18,0,0,0,32,50.25c.61-1.25,1.15-2.53,1.83-3.74.25-.45.79-1,1.19-1s.94.59,1.19,1.05c.66,1.19,1.2,2.44,1.79,3.66A3.2,3.2,0,0,0,42.38,52l5.48-1.93S47.91,50.12,47.81,50.11Z"/><path class="cls-1" d="M5.79,24.22l-1.2-2.66Q2.49,16.89.39,12.22C-.43,10.39.15,9,2,8.38L25.2.31c2.14-.74,3.5-.15,4.42,1.92l5.3,11.84Z"/><path class="cls-1" d="M34.93,34.47c-1.88,4.2-3.69,8.29-5.56,12.36a3,3,0,0,1-4,1.46L4.75,41.11c-1-.35-2-.68-3-1.06a2.39,2.39,0,0,1-1.5-3.3C2,32.62,3.9,28.51,5.77,24.32Z"/><path class="cls-1" d="M64.15,24.21,35.07,14.08c.11-.29.19-.52.29-.75q2.52-5.62,5-11.24A3.07,3.07,0,0,1,44.66.27l23.1,8.05c2.11.73,2.65,2,1.73,4l-4.93,11C64.45,23.64,64.31,23.89,64.15,24.21Z"/><path class="cls-1" d="M64.18,24.32l3.74,8.33c.58,1.29,1.17,2.58,1.73,3.88a2.45,2.45,0,0,1-1.52,3.55Q56.3,44.22,44.47,48.33a2.93,2.93,0,0,1-3.84-1.44c-1.89-4.09-3.71-8.22-5.6-12.41Z"/><path class="cls-1" d="M50,66.52c.21-.69-.11-1.21-.75-1.79a5.67,5.67,0,0,1,.11-8.68,1.68,1.68,0,0,0,.66-1.63,5.71,5.71,0,0,1,5.63-6.19,1.73,1.73,0,0,1,.6.08,1.15,1.15,0,0,0,1.34-.47,5.72,5.72,0,0,1,9.09,0,1.1,1.1,0,0,0,1.17.48,5.62,5.62,0,0,1,6.36,5.25,3.89,3.89,0,0,0,1.21,3A5.56,5.56,0,0,1,75,64.7a2.11,2.11,0,0,0-.76,1.93c.06,3-1.7,5.46-4.71,5.8a7.84,7.84,0,0,0-4.25,1.81,5.55,5.55,0,0,1-7.69-1.16,1.14,1.14,0,0,0-1.15-.51A5.7,5.7,0,0,1,50,66.52Zm3.37-6.1a8.66,8.66,0,0,0,8.71,8.81,8.8,8.8,0,1,0,0-17.59A8.64,8.64,0,0,0,53.42,60.43Z"/><path class="cls-1" d="M56,86.67c-.84-1.22-1.69-2.34-2.41-3.55a1.46,1.46,0,0,0-1.8-.72c-1.35.27-2.72.45-4.29.71l3.62-5.33c.55-.81,1.09-1.64,1.69-2.42a1.44,1.44,0,0,1,.89-.51,13.15,13.15,0,0,1,2.14,0,1.09,1.09,0,0,1,.55.34,9.29,9.29,0,0,0,1.26,1.19,1,1,0,0,1,.45,1.24q-1,4.36-1.91,8.71A1.62,1.62,0,0,1,56,86.67Z"/><path class="cls-1" d="M76.71,83.08c-1.49-.24-2.83-.4-4.14-.67a1.51,1.51,0,0,0-1.87.74c-.73,1.21-1.58,2.34-2.47,3.65-.56-2.55-1.1-5-1.62-7.37-.18-.84-.63-1.79-.41-2.51s1.14-1.24,1.79-1.81c.16-.14.52-.28.67-.2.93.49,2.16-.8,2.93.53.27.47.62.91.93,1.36l3.76,5.53C76.4,82.51,76.5,82.71,76.71,83.08Z"/><polygon class="cls-1" points="62.16 55.46 63.78 58.75 67.4 59.27 64.78 61.83 65.4 65.44 62.16 63.74 58.92 65.44 59.53 61.83 56.91 59.27 60.54 58.75 62.16 55.46"/></g></g></svg>