<svg xmlns="http://www.w3.org/2000/svg" viewBox="0 0 77 77"><defs><style>.cls-1{fill:#40a840;}</style></defs><title>icon_dientuvienthong</title><g id="Layer_2" data-name="Layer 2"><g id="Layer_1-2" data-name="Layer 1"><path class="cls-1" d="M77,38.51A38.5,38.5,0,1,1,39.23,0,38.48,38.48,0,0,1,77,38.51ZM40.65,72.68h.3a39.33,39.33,0,0,0,9.13-2,.76.76,0,0,0,.64-.87c0-8.26,0-16.52,0-24.78A2.71,2.71,0,0,1,51.55,43c2-2,4-4,6-6a.56.56,0,0,0,.18-.7,6.36,6.36,0,0,1,6.57-8.78,6,6,0,0,1,5.38,4.26,6,6,0,0,1-1.61,6.7,6.07,6.07,0,0,1-6.71,1.36.73.73,0,0,0-.92.21q-2.51,2.55-5.06,5.06a1.2,1.2,0,0,0-.4.94q0,10.87,0,21.74v.54A34,34,0,0,0,54,8.1c0,2.24,0,4.46,0,6.68a.65.65,0,0,0,.47.71,6.31,6.31,0,0,1,3.75,6.78,6.42,6.42,0,0,1-12.6.38,6.3,6.3,0,0,1,3.71-7.18.59.59,0,0,0,.41-.65q0-4.07,0-8.13A.57.57,0,0,0,49.27,6a32.14,32.14,0,0,0-9.71-1.74c-1,0-2,0-3,.07V23.1a2.2,2.2,0,0,1-2.46,2.48c-1.39,0-2.78,0-4.18,0a.66.66,0,0,0-.72.46,6.33,6.33,0,0,1-8.83,3,6.4,6.4,0,0,1,2.76-12,6.33,6.33,0,0,1,6.1,3.8c.08.17.25.42.38.43.88,0,1.76,0,2.65,0V4.88A34.11,34.11,0,0,0,22,68.34a2,2,0,0,0,0-.21c0-4.66,0-9.33,0-14a1.06,1.06,0,0,0-.29-.65c-.84-.87-1.71-1.71-2.55-2.58a.58.58,0,0,0-.75-.16A6.4,6.4,0,1,1,22,47.19a.54.54,0,0,0,.13.7c1.1,1.07,2.16,2.18,3.27,3.25a2.92,2.92,0,0,1,.93,2.27c0,5.51,0,11,0,16.53,0,.41.12.63.51.74,1.8.51,3.59,1.1,5.41,1.51,1.32.31,2.7.39,4.13.59V72q0-15.26,0-30.52a.85.85,0,0,0-.59-.91,6.3,6.3,0,0,1-3.53-7.13,6.41,6.41,0,0,1,12.53,0,6.31,6.31,0,0,1-3.56,7.12.81.81,0,0,0-.57.87q0,15.29,0,30.58ZM23.4,21.28a2.14,2.14,0,1,0,2.06,2.2A2.12,2.12,0,0,0,23.4,21.28Zm15.1,11.35a2.13,2.13,0,1,0,2.15,2.13A2.15,2.15,0,0,0,38.51,32.63ZM54,21.3a2.14,2.14,0,0,0-4.28,0,2.14,2.14,0,1,0,4.28,0Zm9.72,10.48a2.13,2.13,0,1,0,0,4.26,2.13,2.13,0,1,0,0-4.26ZM18.17,44.95a2.13,2.13,0,0,0-4.27-.07,2.13,2.13,0,1,0,4.27.07Z"/></g></g></svg>