<svg xmlns="http://www.w3.org/2000/svg" viewBox="0 0 70 89.52"><defs><style>.cls-1{fill:#40a840;}</style></defs><title>icon_congnghemoitruong</title><g id="Layer_2" data-name="Layer 2"><g id="Layer_1-2" data-name="Layer 1"><path class="cls-1" d="M55.83,52a43,43,0,0,0-7.67,5.12c-2.35,2-4.59,4.09-7,6.24-.31-1.21-.68-2.44-.93-3.7a15.73,15.73,0,0,1,.4-8.31A13.24,13.24,0,0,1,48,43.69,29,29,0,0,1,58,41.15c2.37-.21,4.76-.21,7.13-.29.32,0,.65,0,1.07.06,0,1.33,0,2.63,0,3.92A37.09,37.09,0,0,1,63.94,58a14.09,14.09,0,0,1-6.81,7.9,13.35,13.35,0,0,1-6.19,1.32,1.38,1.38,0,0,0-1.26.61,14.67,14.67,0,0,0-3,7.28,2.12,2.12,0,0,1-1.83,2,6.06,6.06,0,0,1-1.12.11H26.07a6.19,6.19,0,0,1-1.27-.13,2.17,2.17,0,0,1-1.67-1.82,14.15,14.15,0,0,0-5.68-9.95A45.66,45.66,0,0,1,4,50.46,31.8,31.8,0,0,1,.22,31.3,34.47,34.47,0,0,1,10,10.69,34,34,0,0,1,30.51.31,34,34,0,0,1,58.52,9a33.6,33.6,0,0,1,11.3,21.63A42.76,42.76,0,0,1,70,36.62c0,1.06-.15,1-1.19,1-.65,0-1.63,0-2.28,0-.91,0-1.14-.06-1.08-1A25.23,25.23,0,0,0,65,29.79a29.71,29.71,0,0,0-14.65-21,30,30,0,0,0-35.85,3.8,29.66,29.66,0,0,0-10,21.2,28,28,0,0,0,5.84,18.32,40.6,40.6,0,0,0,9.33,9.12,19.17,19.17,0,0,1,7.38,10.65c.17.55.39.74,1,.73q6.85,0,13.7,0a.78.78,0,0,0,.92-.71,20.9,20.9,0,0,1,2.82-6.11c1.36-2.07,2.57-4.24,4-6.29A47.81,47.81,0,0,1,55.83,52Z"/><path class="cls-1" d="M48,39.61c-7.08,2.6-11.35,7.29-11.28,15.24C33,46,30.82,36.79,28.88,27.48a115,115,0,0,0,.42,17,126.36,126.36,0,0,0,2.56,17c-1-.34-1.69-.59-2.4-.86A26.25,26.25,0,0,1,18.9,53.7a17.35,17.35,0,0,1-4.58-11.47,30.89,30.89,0,0,1,3.37-14,76.43,76.43,0,0,1,8.63-13.8c.13-.17.29-.33.52-.58,1.44,1,2.87,2,4.27,3.07A60.32,60.32,0,0,1,42,27.15a27,27,0,0,1,5.87,11.78c0,.12,0,.24.07.37A3.13,3.13,0,0,1,48,39.61Z"/><path class="cls-1" d="M45.09,81.72A6.79,6.79,0,0,1,43,86.45c-4.33,4.48-12.95,4-16.71-1A5.64,5.64,0,0,1,25,81.72Z"/></g></g></svg>