<svg xmlns="http://www.w3.org/2000/svg" viewBox="0 0 77 77.09"><defs><style>.cls-1{fill:#40a840;}</style></defs><title>icon_congnghethongtin</title><g id="Layer_2" data-name="Layer 2"><g id="Layer_1-2" data-name="Layer 1"><path class="cls-1" d="M32.09,60.77c-.41,1.19-.73,1.81-1.09,2.86s-.73,2.44-1.11,3.57c-2.81.4-6.15.89-9.49,1.36-5.15.72-8.87-1.64-11.82-5.58A39.5,39.5,0,0,1,2,50.79c-.3-1-.27-1.4.66-1.94a80.37,80.37,0,0,1,19.89-8.43c.92-.24,1.28-.25,1.43.72A45.24,45.24,0,0,0,32.09,60.77Z"/><path class="cls-1" d="M.15,45.24c0-4.06-.39-7.85.08-11.53A38.86,38.86,0,0,1,8,15c1.37-1.81,2.81-2.51,4.9-2.1,2.64.51,5.28,1.06,7.07,1.42a58.65,58.65,0,0,0,3.59,5.89,3.26,3.26,0,0,1,.85,2.63c-.43,3.95-.75,7.92-1.22,11.86A2.15,2.15,0,0,1,22,36.2,81,81,0,0,0,2,44.36C1.61,44.57,1.19,44.74.15,45.24Z"/><path class="cls-1" d="M62.77,29.29a3.47,3.47,0,0,0-1.26.09c-2.38,1.28-3.9-.25-5.48-1.61a79.92,79.92,0,0,0-19-12,8.7,8.7,0,0,0-2-6.68c-.17-.2,0-1,.28-1.26,2-2.36,4.13-4.64,6.17-7,1.37-1.58,3-.53,4.26-.18a94.68,94.68,0,0,1,11,3.84,5.47,5.47,0,0,1,2.52,2.63,35.41,35.41,0,0,1,3.5,14.35C62.8,24.05,62.77,26.63,62.77,29.29Z"/><path class="cls-1" d="M35.8,58.72A45.64,45.64,0,0,1,27.8,39c3.4-.39,6.76-.84,10.13-1.13a68.07,68.07,0,0,1,7.81-.37c2.58.06,5.15.46,7.72.75a1.23,1.23,0,0,1,.83.51c1.17,2,2.3,4.1,3.59,6.43A42.3,42.3,0,0,1,45.06,59.9a1.74,1.74,0,0,1-1.58.14C41.17,58.17,38.54,58.46,35.8,58.72Z"/><path class="cls-1" d="M46.56,68.84a5.47,5.47,0,0,0,.06-.87A9.85,9.85,0,0,0,47,64.57c-.11-1.35,1.8-2.13,3-3.18A45.25,45.25,0,0,0,61.63,47c1.13-2.3,4.67-2.66,6.05-.59,1.71,2.55,3.41,5.13,5,7.79a2.88,2.88,0,0,1,.06,2.41A39.52,39.52,0,0,1,55.82,73.14a2,2,0,0,1-1.55.15c-2.37-1.14-4.69-2.37-7-3.64A2.26,2.26,0,0,1,46.56,68.84Z"/><path class="cls-1" d="M28.33,23.38c2.51-1.27,4.22-2.21,6-3a2.81,2.81,0,0,1,2.14-.21q7.64,4.6,15.16,9.43a23,23,0,0,1,3,2.61,6.49,6.49,0,0,1,.77,1.08c-.47.22-1,.65-1.42.64-1.9,0-3.79-.36-5.69-.35-4.48,0-9,.12-13.43.33-2.43.12-4.85.54-7.75.88C27.58,30.58,28,26.59,28.33,23.38Z"/><path class="cls-1" d="M76.95,39.76c-2-.69-3.82-1.27-5.61-2-.4-.16-.66-.77-.88-1.23-.68-1.46-.94-3.34-2-4.33-1.81-1.63-1.36-3.47-1.44-5.36-.16-3.63-.28-7.27-.59-10.89-.14-1.64-.69-3.26-.9-4.93C73.25,19,77.53,28.3,76.95,39.76Z"/><path class="cls-1" d="M35.85.36c-1.52,2-3,3.94-4.5,5.82-.18.22-.8.15-1.21.12a8.59,8.59,0,0,0-7.46,2.94,3.25,3.25,0,0,1-2.46.74c-2-.23-3.91-.76-5.84-1.16C18.19,4.38,30.15-.32,35.85.36Z"/><path class="cls-1" d="M20.89,72.81c3.56-.57,6.89-1.14,10.24-1.6.4-.06,1,.37,1.31.71,2.72,2.6,6.69,3.86,10.64,1.32a2.45,2.45,0,0,1,2,.13c1.29.6,2.49,1.39,3.82,2.15C42.42,78.08,29.34,77.74,20.89,72.81Z"/><path class="cls-1" d="M70.26,41.9c1.91.7,3.85,1.35,5.71,2.15a1.65,1.65,0,0,1,.58,1.43c-.27,1.52-.73,3-1.18,4.78l-5.32-7.92Z"/><circle class="cls-1" cx="39.01" cy="66.83" r="4.8"/><circle class="cls-1" cx="29.4" cy="13.99" r="4.8"/><circle class="cls-1" cx="63.02" cy="38.01" r="4.8"/></g></g></svg>