<svg xmlns="http://www.w3.org/2000/svg" viewBox="0 0 77 75.49"><defs><style>.cls-1{fill:#40a840;}</style></defs><title>icon_xaydungcongtrinh</title><g id="Layer_2" data-name="Layer 2"><g id="Layer_1-2" data-name="Layer 1"><path class="cls-1" d="M54.59,63.9a35.87,35.87,0,0,1-8.27,3.54c-.33.09-.36.27-.36.55,0,1.23,0,2.46,0,3.68a4,4,0,0,1-4.12,3.82q-3.41,0-6.82,0a4,4,0,0,1-4.13-4.15c0-1.12,0-2.24,0-3.36,0-.29-.07-.43-.39-.52a28.31,28.31,0,0,1-8.31-3.58c-.42.44-.84.9-1.28,1.35s-1.15,1.2-1.79,1.74a4,4,0,0,1-5.36-.21q-2.57-2.53-5.09-5.09a4,4,0,0,1-.15-5.44c.81-.9,1.69-1.73,2.55-2.58a3.43,3.43,0,0,1,.41-.31c-.72-1.52-1.45-2.89-2-4.31s-1-2.92-1.57-4.48H4.17a4,4,0,0,1-4.15-4c0-.9,0-1.81,0-2.71A.78.78,0,0,1,.88,37H17.5l.16,0c0,7.45,2.9,13.48,9,17.82A19.89,19.89,0,0,0,39.6,58.5a20.22,20.22,0,0,0,14.25-6.71A20.67,20.67,0,0,0,59.34,37H75.7c1.05,0,1.3.24,1.3,1.31,0,.87,0,1.74,0,2.6A4,4,0,0,1,73,44.54c-1.33,0-2.67,0-4,0-.27.89-.53,1.77-.82,2.63a26.11,26.11,0,0,1-2.64,5.61c-.22.33-.16.51.11.77.81.77,1.6,1.57,2.38,2.37a4,4,0,0,1,0,5.88l-4.82,4.82a4,4,0,0,1-5.85,0C56.42,65.76,55.52,64.84,54.59,63.9Z"/><path class="cls-1" d="M15.14,6h8.51v4.29c.61-.44,1.16-.81,1.68-1.2,3.47-2.65,6.93-5.31,10.4-8,1.94-1.48,3.56-1.47,5.51,0l8.5,6.52L69.68,22.89a6.83,6.83,0,0,1,.69.59,3,3,0,0,1,.92,3.19,3.27,3.27,0,0,1-2.66,2.27,4.56,4.56,0,0,1-3.83-1q-4.21-3.27-8.45-6.5L39.85,8.77a1.66,1.66,0,0,0-2.47,0L12.19,28.1a4.43,4.43,0,0,1-4.32,1A3.23,3.23,0,0,1,5.53,26.5a3.07,3.07,0,0,1,1.32-3l6.86-5.37A3.21,3.21,0,0,0,15,15.42c0-3,.06-6.1.09-9.14C15.12,6.19,15.13,6.1,15.14,6Z"/><path class="cls-1" d="M49,35.5c0,2.27,0,4.54,0,6.81a1.53,1.53,0,0,1-1.36,1.39c-2.25,0-4.5.08-6.76.11l-.25,0V35.5Z"/><path class="cls-1" d="M49,31.1H40.66V22.81h3c1.24,0,2.49,0,3.73,0a1.55,1.55,0,0,1,1.53,1.45c0,2.16.08,4.33.11,6.49C49,30.89,49,31,49,31.1Z"/><path class="cls-1" d="M36.41,31.23H28.14v-.6c0-2.05,0-4.11,0-6.17A1.33,1.33,0,0,1,29.46,23c2.3,0,4.61,0,7,0Z"/><path class="cls-1" d="M36.29,43.76c-2.37-.07-4.71-.12-7-.21a1.36,1.36,0,0,1-1.08-1.27C28.07,40,28,37.75,28,35.45h8.32Z"/></g></g></svg>