<svg xmlns="http://www.w3.org/2000/svg" viewBox="0 0 76.93 93"><defs><style>.cls-1{fill:#fff;}</style></defs><title>tin_tuc_va_su_kien</title><g id="Layer_2" data-name="Layer 2"><g id="Layer_1-2" data-name="Layer 1"><path class="cls-1" d="M36.88,34.41h-17a.75.75,0,0,1-.75-.77,39.79,39.79,0,0,1,3-13.92.75.75,0,0,1,.69-.46H36.88a.75.75,0,0,1,.75.75V33.66A.75.75,0,0,1,36.88,34.41Zm-16.25-1.5h15.5V20.75H23.32A38.28,38.28,0,0,0,20.63,32.91Z"/><path class="cls-1" d="M36.88,17.58H24.25a.75.75,0,0,1-.67-1.09A57.17,57.17,0,0,1,36.37.24.75.75,0,0,1,37.63.8v16A.75.75,0,0,1,36.88,17.58Zm-11.38-1.5H36.13V2.52A55.47,55.47,0,0,0,25.49,16.08Z"/><path class="cls-1" d="M57.08,34.41H40a.75.75,0,0,1-.75-.75V20a.75.75,0,0,1,.75-.75H54.13a.75.75,0,0,1,.69.47,40.25,40.25,0,0,1,3,13.92.75.75,0,0,1-.75.77Zm-16.28-1.5H56.3a38.78,38.78,0,0,0-2.68-12.16H40.79Z"/><path class="cls-1" d="M53.77,51.25H40a.75.75,0,0,1-.75-.75V36.84a.75.75,0,0,1,.75-.75H57a.75.75,0,0,1,.75.79A39.76,39.76,0,0,1,54.46,50.8.75.75,0,0,1,53.77,51.25Zm-13-1.5H53.28a38.3,38.3,0,0,0,3-12.16H40.79Z"/><path class="cls-1" d="M52.67,17.58H40a.75.75,0,0,1-.75-.75V.75A.75.75,0,0,1,40.55.2,57.36,57.36,0,0,1,53.34,16.49a.75.75,0,0,1-.67,1.09Zm-11.87-1.5H51.43A55.66,55.66,0,0,0,40.79,2.47Z"/><path class="cls-1" d="M73.2,34.41h-13a.75.75,0,0,1-.75-.73,41.08,41.08,0,0,0-2.66-13.42.75.75,0,0,1,.7-1H69.72a.75.75,0,0,1,.67.42,35.19,35.19,0,0,1,3.56,14,.75.75,0,0,1-.75.78ZM61,32.91H72.4a33.65,33.65,0,0,0-3.16-12.16H58.59A42.5,42.5,0,0,1,61,32.91Z"/><path class="cls-1" d="M68,17.58H56.18a.75.75,0,0,1-.68-.43A55.41,55.41,0,0,0,44.37,1.61.75.75,0,0,1,45,.34,35.65,35.65,0,0,1,68.59,16.43.75.75,0,0,1,68,17.58Zm-11.3-1.5h9.91A34.19,34.19,0,0,0,47.17,2.36,55.81,55.81,0,0,1,56.66,16.08Z"/><path class="cls-1" d="M69.72,51.25H57.21a.75.75,0,0,1-.7-1,41.33,41.33,0,0,0,3-13.42.75.75,0,0,1,.75-.71h13a.75.75,0,0,1,.75.78,35.19,35.19,0,0,1-3.56,14A.75.75,0,0,1,69.72,51.25ZM58.3,49.75H69.24A33.65,33.65,0,0,0,72.4,37.59H60.92A42.75,42.75,0,0,1,58.3,49.75Z"/><path class="cls-1" d="M36.88,51.25H23.15a.75.75,0,0,1-.69-.45,40.08,40.08,0,0,1-3.34-13.92.75.75,0,0,1,.75-.79h17a.75.75,0,0,1,.75.75V50.5A.75.75,0,0,1,36.88,51.25Zm-13.23-1.5H36.13V37.59H20.68A38.63,38.63,0,0,0,23.65,49.75Z"/><path class="cls-1" d="M62.61,93H14.31A14.33,14.33,0,0,1,0,78.69V73.78A14.34,14.34,0,0,1,12.62,59.57a35.42,35.42,0,0,1-4.27-5.5A.75.75,0,0,1,9,52.92H21.13a.75.75,0,0,1,.67.42,48.51,48.51,0,0,0,3.63,6.13h2A48.64,48.64,0,0,1,24,54a.75.75,0,0,1,.66-1.1H36.88a.75.75,0,0,1,.75.75v5.8H39.3v-5.8a.75.75,0,0,1,.75-.75H52.25a.75.75,0,0,1,.66,1.1,48.3,48.3,0,0,1-3.44,5.44h2a48.75,48.75,0,0,0,3.63-6.13.75.75,0,0,1,.67-.42H67.94a.75.75,0,0,1,.64,1.15,35.13,35.13,0,0,1-4.27,5.5A14.34,14.34,0,0,1,76.93,73.78v4.91A14.33,14.33,0,0,1,62.61,93ZM10.37,54.42a34.81,34.81,0,0,0,4.46,5.26A.75.75,0,0,1,14.31,61,12.83,12.83,0,0,0,1.5,73.78v4.91A12.83,12.83,0,0,0,14.31,91.5h48.3A12.83,12.83,0,0,0,75.43,78.69V73.78A12.83,12.83,0,0,0,62.61,61a.75.75,0,0,1-.52-1.29,34.49,34.49,0,0,0,4.47-5.26H56.26a52,52,0,0,1-3.76,6.22.75.75,0,0,1-.62.32H48a.75.75,0,0,1-.6-1.2A53.52,53.52,0,0,0,51,54.42H40.79v5.8A.75.75,0,0,1,40,61H36.88a.75.75,0,0,1-.75-.75v-5.8H26a53,53,0,0,0,3.57,5.35.75.75,0,0,1-.6,1.2H25a.75.75,0,0,1-.62-.32,51.65,51.65,0,0,1-3.76-6.22Zm48.23,25a1.55,1.55,0,0,1,.75.21L62,81.06l.86.45a.38.38,0,0,0,.14.05c.11-.07.13-.09.11-.25-.15-.84-.28-1.67-.42-2.51l-.22-1.35A1.53,1.53,0,0,1,62.91,76c.68-.64,1.35-1.3,2-2l.75-.75c.16-.16.15-.19.14-.23s0-.08-.24-.11l-.14,0c-1.27-.18-2.53-.36-3.79-.57a1.62,1.62,0,0,1-1.09-.78c-.61-1.17-1.18-2.34-1.76-3.52-.12-.25-.17-.25-.21-.25s-.08,0-.19.23l-.74,1.52c-.33.66-.66,1.33-1,2a1.42,1.42,0,0,1-1.17.87l-2.57.36-1.29.19a.6.6,0,0,0-.26.07c0,.08,0,.12.12.28l1.06,1.05c.55.54,1.09,1.09,1.65,1.62a1.61,1.61,0,0,1,.5,1.57c-.18,1-.35,2-.51,3.05l-.15.92s0,0,0,0a.35.35,0,0,0,.27,0c1.16-.6,2.32-1.21,3.48-1.84A1.53,1.53,0,0,1,58.6,79.47Zm-20.13,0a1.55,1.55,0,0,1,.75.21L41.75,81l1,.5a.39.39,0,0,0,.13.05c.11-.07.14-.09.11-.25-.13-.76-.26-1.52-.38-2.28l-.26-1.58A1.53,1.53,0,0,1,42.77,76c.68-.63,1.34-1.29,2-1.94l.79-.78c.16-.15.15-.19.13-.23s0-.08-.23-.11l-.12,0c-1.27-.18-2.54-.36-3.81-.58a1.62,1.62,0,0,1-1.09-.78c-.52-1-1-2-1.51-3L38.67,68c-.12-.25-.17-.25-.21-.25s-.08,0-.19.23c-.25.53-.52,1.07-.78,1.61s-.62,1.26-.92,1.9a1.44,1.44,0,0,1-1.17.87l-2.54.36-1.33.19a.57.57,0,0,0-.26.07c0,.08,0,.12.12.28l1.06,1c.55.54,1.09,1.09,1.65,1.62a1.61,1.61,0,0,1,.5,1.57c-.16.87-.3,1.76-.44,2.63l-.22,1.34s0,0,0,0a.35.35,0,0,0,.27,0c1.16-.6,2.33-1.21,3.48-1.84A1.52,1.52,0,0,1,38.47,79.47Zm-20.13,0a1.54,1.54,0,0,1,.75.21l2.38,1.26,1.11.58a.38.38,0,0,0,.14.05c.11-.07.13-.09.11-.25-.16-.9-.3-1.79-.45-2.68l-.19-1.18A1.53,1.53,0,0,1,22.64,76c.69-.65,1.37-1.32,2-2l.74-.73c.16-.15.15-.19.14-.23s0-.08-.23-.11c-1.38-.2-2.66-.38-3.93-.59a1.62,1.62,0,0,1-1.09-.78c-.61-1.17-1.19-2.35-1.76-3.52-.12-.24-.18-.25-.21-.25s-.08,0-.2.23l-.75,1.52c-.33.66-.65,1.32-1,2a1.43,1.43,0,0,1-1.17.87l-2.55.36-1.31.19a.61.61,0,0,0-.26.07c0,.09,0,.13.12.29l1.08,1.07c.54.54,1.08,1.08,1.63,1.6a1.61,1.61,0,0,1,.5,1.57c-.16.92-.31,1.83-.46,2.74l-.2,1.24s0,0,0,0a.33.33,0,0,0,.27,0c1.16-.6,2.33-1.21,3.48-1.83A1.55,1.55,0,0,1,18.34,79.47Z"/><path class="cls-1" d="M19.72,51.25H7.21a.75.75,0,0,1-.67-.42A35.08,35.08,0,0,1,3,36.87a.75.75,0,0,1,.75-.78h13a.75.75,0,0,1,.75.71,41.5,41.5,0,0,0,2.94,13.42.75.75,0,0,1-.7,1Zm-12-1.5H18.62A42.94,42.94,0,0,1,16,37.59H4.54A33.55,33.55,0,0,0,7.68,49.75Z"/><path class="cls-1" d="M16.69,34.41H3.74A.75.75,0,0,1,3,33.63a35.08,35.08,0,0,1,3.54-14,.75.75,0,0,1,.67-.42H19.41a.75.75,0,0,1,.7,1,41.34,41.34,0,0,0-2.66,13.42A.75.75,0,0,1,16.69,34.41ZM4.54,32.91H16a42.79,42.79,0,0,1,2.36-12.16H7.68A33.55,33.55,0,0,0,4.54,32.91Z"/><path class="cls-1" d="M20.74,17.58H9a.75.75,0,0,1-.64-1.15A35.61,35.61,0,0,1,31.89.34a.75.75,0,0,1,.67,1.26A55.61,55.61,0,0,0,21.42,17.14.75.75,0,0,1,20.74,17.58Zm-10.38-1.5h9.9a56,56,0,0,1,9.5-13.72A34.15,34.15,0,0,0,10.36,16.08Z"/></g></g></svg>