<svg xmlns="http://www.w3.org/2000/svg" viewBox="0 0 72.21 80.6"><defs><style>.cls-1{fill:#fff;}</style></defs><title>san_pham</title><g id="Layer_2" data-name="Layer 2"><g id="Layer_1-2" data-name="Layer 1"><path class="cls-1" d="M31.77,66.68a8.72,8.72,0,0,1-2.86-.49L7.54,58.8a4.43,4.43,0,0,1-3.24-4.6q0-5.32,0-10.64a2.88,2.88,0,0,1,1-2.51A2.85,2.85,0,0,1,7.94,41l17.54,6.25A2.08,2.08,0,0,0,28.43,46l.48-1c.36-.77.73-1.57,1.16-2.33.27-.49.93-1.3,1.71-1.3h0c.95,0,1.63,1.18,1.7,1.32.42.75.78,1.53,1.13,2.28l.47,1a2.11,2.11,0,0,0,3,1.26l5.25-1.85.33.26c.36.29.36.29,0,4A1.92,1.92,0,0,1,43,50.92a5.52,5.52,0,0,0,0,8.88,1.84,1.84,0,0,1,.59,2,1.58,1.58,0,0,0,0,.41c.14.81-.93,1.23-1.15,1.31q-3.92,1.38-7.86,2.72A8.79,8.79,0,0,1,31.77,66.68ZM6.54,42.18a.68.68,0,0,0-.39.1c-.22.16-.35.63-.35,1.28q0,5.32,0,10.64A3,3,0,0,0,8,57.39L29.4,64.78a7.13,7.13,0,0,0,4.73,0q3.93-1.34,7.84-2.72l.15-.07a4.11,4.11,0,0,1,.06-.49c.08-.44.06-.45-.05-.54a7,7,0,0,1,0-11.21.5.5,0,0,0,.09-.23h0c.06-.63.14-1.53.19-2.24l-3.79,1.33a3.57,3.57,0,0,1-4.84-2l-.48-1c-.34-.73-.69-1.48-1.08-2.19a1.91,1.91,0,0,0-.41-.5,1.9,1.9,0,0,0-.4.48c-.4.72-.76,1.49-1.11,2.24l-.49,1a3.56,3.56,0,0,1-4.8,2L7.44,42.37A2.83,2.83,0,0,0,6.54,42.18Z"/><path class="cls-1" d="M5.48,23.17,3.12,17.92q-1.35-3-2.7-6A3.31,3.31,0,0,1,.24,9.18a3.23,3.23,0,0,1,2-1.71L22.86.32a3.5,3.5,0,0,1,4.85,2.1l5,11.25ZM24.5,1.5a3.55,3.55,0,0,0-1.15.23L2.78,8.89a1.83,1.83,0,0,0-1.16.89,1.9,1.9,0,0,0,.16,1.51q1.34,3,2.7,6l1.8,4,24.43-8.51L26.34,3C25.87,2,25.33,1.5,24.5,1.5Z"/><path class="cls-1" d="M24.47,44.56A4.46,4.46,0,0,1,23,44.3L9.47,39.58,4,37.66C3.3,37.44,2.65,37.22,2,37a3.08,3.08,0,0,1-1.8-1.66A2.86,2.86,0,0,1,.26,33c1.16-2.65,2.34-5.29,3.54-8l1.66-3.71,27.29,9.51-1.8,4c-1.16,2.59-2.3,5.16-3.47,7.71A3.21,3.21,0,0,1,24.47,44.56ZM6.27,23.26l-1.1,2.46C4,28.37,2.79,31,1.64,33.65a1.36,1.36,0,0,0,0,1.09,1.61,1.61,0,0,0,.95.84c.63.24,1.26.46,1.9.67L10,38.17l13.55,4.72a1.92,1.92,0,0,0,2.61-.9c1.17-2.54,2.31-5.1,3.47-7.69l1.13-2.52Z"/><path class="cls-1" d="M58,23.15,30.88,13.69l.36-1c.06-.17.12-.33.19-.48q2.23-5,4.48-10a3.45,3.45,0,0,1,4.71-2L61.11,7.43a3.43,3.43,0,0,1,2.21,1.76A3.45,3.45,0,0,1,63.08,12l-4.37,9.77c-.07.16-.16.32-.25.5ZM32.85,12.79,57.28,21.3l.06-.12,4.37-9.76a2.13,2.13,0,0,0,.23-1.63,2.11,2.11,0,0,0-1.33-.94L40.12,1.7a2,2,0,0,0-2.84,1.21Q35.06,7.85,32.85,12.79Z"/><path class="cls-1" d="M39.09,44.56a3.2,3.2,0,0,1-3-1.91c-1.2-2.61-2.38-5.23-3.56-7.88L30.8,30.89l27.28-9.51,4,8.83c.4.88.79,1.76,1.17,2.64a3.13,3.13,0,0,1,.08,2.54A3,3,0,0,1,61.43,37q-10.49,3.67-21,7.31A4.15,4.15,0,0,1,39.09,44.56ZM32.84,31.77l1.07,2.39c1.18,2.64,2.35,5.26,3.56,7.86a1.86,1.86,0,0,0,2.48.88q10.5-3.64,21-7.31a1.63,1.63,0,0,0,1-.81,1.69,1.69,0,0,0-.08-1.34c-.37-.88-.77-1.75-1.16-2.61l-3.41-7.58Z"/><path class="cls-1" d="M57.92,69.29A6,6,0,0,1,53.3,67c-.16-.19-.17-.19-.37-.18a6,6,0,0,1-4.75-1.55,5.93,5.93,0,0,1-1.79-4.58l0-.2c0-.14.1-.32-.45-.8a5.78,5.78,0,0,1,.11-8.84.76.76,0,0,0,.32-.81,5.61,5.61,0,0,1,1.3-4.19,6.23,6.23,0,0,1,4.38-2.12,2.25,2.25,0,0,1,.79.1c.16,0,.2.06.41-.18a6,6,0,0,1,4.61-2.26h0a5.93,5.93,0,0,1,4.59,2.28c.16.19.17.19.34.16a5.6,5.6,0,0,1,4.5,1.31,5.45,5.45,0,0,1,2,4.08,2.71,2.71,0,0,0,.86,2.18,5.51,5.51,0,0,1,1.57,4.12,5.73,5.73,0,0,1-2,4.13,1.15,1.15,0,0,0-.41,1.12c.06,3.19-1.89,5.57-4.84,5.91a6.19,6.19,0,0,0-3.39,1.45A5.23,5.23,0,0,1,57.92,69.29ZM53,65.36a1.74,1.74,0,0,1,1.45.74,4.18,4.18,0,0,0,5.77.91,7.66,7.66,0,0,1,4.14-1.76c2.18-.25,3.55-2,3.51-4.39a2.62,2.62,0,0,1,.94-2.29,4.23,4.23,0,0,0,1.47-3,4,4,0,0,0-1.13-3,4.2,4.2,0,0,1-1.3-3.23,4,4,0,0,0-1.48-2.95,4.12,4.12,0,0,0-3.29-1,1.72,1.72,0,0,1-1.74-.69,4.46,4.46,0,0,0-3.44-1.73h0a4.49,4.49,0,0,0-3.46,1.72,1.75,1.75,0,0,1-2,.66.87.87,0,0,0-.27,0,4.68,4.68,0,0,0-3.34,1.59,4.12,4.12,0,0,0-1,3.08A2.23,2.23,0,0,1,47.05,52,4.28,4.28,0,0,0,47,58.62a2.27,2.27,0,0,1,.92,2.25,4.43,4.43,0,0,0,1.33,3.35,4.57,4.57,0,0,0,3.58,1.15Zm4.88-1.44h0a8.48,8.48,0,0,1-6.23-2.71,8.75,8.75,0,0,1,0-11.73,8.5,8.5,0,0,1,6.23-2.67h0a8.5,8.5,0,0,1,6,2.51,8.26,8.26,0,0,1,2.5,5.86,8.77,8.77,0,0,1-2.54,6.28A8.43,8.43,0,0,1,57.89,63.92Zm0-15.61h0a7,7,0,0,0-5.14,2.19,6.66,6.66,0,0,0-1.86,4.81v.09a6.58,6.58,0,0,0,1.84,4.78,7,7,0,0,0,5.14,2.24h0a6.94,6.94,0,0,0,4.94-2,7.28,7.28,0,0,0,2.1-5.22,6.76,6.76,0,0,0-2.05-4.8A7,7,0,0,0,57.92,48.31Z"/><path class="cls-1" d="M52.46,80l-.65-1-.67-1c-.53-.75-1-1.46-1.49-2.22-.19-.32-.3-.39-.81-.29-.83.17-1.68.3-2.58.44l-3,.48,4.52-6.65c.38-.56.77-1.15,1.2-1.7a2,2,0,0,1,1.31-.74,12.37,12.37,0,0,1,2,0,1.56,1.56,0,0,1,.93.49c.16.14.29.29.43.44a3.18,3.18,0,0,0,.58.53,1.63,1.63,0,0,1,.74,1.9l-1.7,7.73a1.09,1.09,0,0,1-.19.4Zm-3.29-6a1.94,1.94,0,0,1,1.76,1.06c.37.62.78,1.21,1.21,1.82l1.42-6.46a.79.79,0,0,0,0-.24l-.09-.06a4.36,4.36,0,0,1-.89-.79c-.11-.12-.22-.24-.34-.35l-.13-.12a10.47,10.47,0,0,0-1.68,0,.57.57,0,0,0-.27.16c-.4.51-.76,1-1.14,1.61l-2.57,3.79c.71-.11,1.39-.22,2.07-.36A3.21,3.21,0,0,1,49.17,74Z"/><path class="cls-1" d="M62.91,80.6l-.81-3.67c-.34-1.55-.67-3.05-1-4.56,0-.19-.1-.39-.16-.59a3.47,3.47,0,0,1-.18-2,3.52,3.52,0,0,1,1.35-1.58l.45-.36A1.4,1.4,0,0,1,64,67.54a1.31,1.31,0,0,0,.58-.06,1.88,1.88,0,0,1,2.32.81,8.68,8.68,0,0,0,.5.74l.3.42L71,74.36c.08.12.15.25.25.43l.92,1.64-1.53-.24L69.5,76c-.87-.13-1.7-.25-2.53-.43-.53-.11-.66,0-.87.31-.46.77-1,1.49-1.51,2.26l-.71,1ZM63.54,69l-.5.39c-.36.28-.77.6-.85.85a2.64,2.64,0,0,0,.19,1.14c.07.24.14.47.19.7.33,1.5.66,3,1,4.55l.07.31c.43-.61.83-1.19,1.19-1.79a2.09,2.09,0,0,1,2.46-1c.65.13,1.32.24,2,.35L66.46,70.3l-.28-.39A10.24,10.24,0,0,1,65.6,69c-.12-.2-.13-.23-.7-.1A2.52,2.52,0,0,1,63.54,69Z"/><polygon class="cls-1" points="57.89 50.95 59.33 53.86 62.54 54.33 60.22 56.6 60.76 59.8 57.89 58.29 55.01 59.8 55.56 56.6 53.23 54.33 56.45 53.86 57.89 50.95"/></g></g></svg>