<svg xmlns="http://www.w3.org/2000/svg" viewBox="0 0 77.5 77.5"><defs><style>.cls-1{fill:#fff;}</style></defs><title>dien_tu_vien_thong</title><g id="Layer_2" data-name="Layer 2"><g id="Layer_1-2" data-name="Layer 1"><path class="cls-1" d="M38.72,77.25h-.29A38.48,38.48,0,0,1,.26,38a38.5,38.5,0,0,1,77,.75A38.48,38.48,0,0,1,38.72,77.25Zm0-76.15A37.66,37.66,0,0,0,11.78,65,37.38,37.38,0,0,0,38.44,76.4h.28a37.66,37.66,0,0,0,.74-75.3ZM37,73.14l-.48-.07-1.33-.16a25,25,0,0,1-2.8-.43c-1.25-.29-2.5-.66-3.7-1L27.07,71a1,1,0,0,1-.81-1.14q0-3.7,0-7.4,0-4.48,0-9a2.47,2.47,0,0,0-.79-1.94c-.61-.58-1.2-1.18-1.8-1.78l-1.44-1.43A1,1,0,0,1,22,47.19a5.82,5.82,0,0,0-1.37-6.45,6,6,0,0,0-6.44-1.19,5.91,5.91,0,0,0,4.52,10.92,1,1,0,0,1,1.2.26l1.18,1.19c.45.45.9.9,1.34,1.36a1.46,1.46,0,0,1,.41.93q0,5.2,0,10.39v3.46a2.35,2.35,0,0,1,0,.24l-.07.61-.55-.27A34.16,34.16,0,0,1,32.51,5.08L33,5V22.14H31.42c-.49,0-1,0-1.48,0s-.65-.48-.74-.67a5.83,5.83,0,0,0-5.63-3.52,5.91,5.91,0,0,0,.26,11.82,5.84,5.84,0,0,0,5.34-3.51,1.06,1.06,0,0,1,1.07-.71H34.4a1.77,1.77,0,0,0,2-2V4.57h.41l1,0c.68,0,1.35-.05,2,0a32.39,32.39,0,0,1,9.74,1.75,1,1,0,0,1,.74,1q0,4,0,8a1,1,0,0,1-.66,1A5.78,5.78,0,0,0,46.2,23a5.86,5.86,0,0,0,5.9,4.65h.22a6,6,0,0,0,5.52-5,5.81,5.81,0,0,0-3.46-6.25,1.06,1.06,0,0,1-.71-1.09c0-1.71,0-3.41,0-5.13V8l.6.28a34.08,34.08,0,0,1,1,60.36l-.62.32V63.83q0-8.79,0-17.59A1.61,1.61,0,0,1,55.14,45q2.52-2.49,5-5a1.16,1.16,0,0,1,1.35-.31,5.6,5.6,0,0,0,6.2-1.25,5.54,5.54,0,0,0,1.49-6.18,5.57,5.57,0,0,0-5-3.93,5.83,5.83,0,0,0-5.48,2.5,6,6,0,0,0-.58,5.61,1,1,0,0,1-.27,1.14l-2.1,2.1Q53.88,41.59,52,43.49a2.26,2.26,0,0,0-.72,1.75q0,5.4,0,10.79,0,6.86,0,13.72A1.16,1.16,0,0,1,50.34,71a39.55,39.55,0,0,1-9.13,2h-.75V69.19q0-13.75,0-27.5a1.2,1.2,0,0,1,.81-1.24,5.79,5.79,0,0,0,3.28-6.56,5.92,5.92,0,0,0-11.57,0,5.83,5.83,0,0,0,3.26,6.57,1.25,1.25,0,0,1,.83,1.29q0,12.58,0,25.16ZM22.76,47.65a.36.36,0,0,0,.08.09l1.45,1.44c.59.59,1.18,1.19,1.79,1.77a3.3,3.3,0,0,1,1,2.55q0,4.48,0,9,0,3.7,0,7.4c0,.27,0,.28.19.32l1.68.49c1.19.35,2.43.72,3.65,1a24.52,24.52,0,0,0,2.7.41l.87.1V66.88q0-12.58,0-25.16c0-.31,0-.38-.34-.52a6.68,6.68,0,0,1-3.73-7.53,6.77,6.77,0,0,1,13.22,0,6.64,6.64,0,0,1-3.76,7.52c-.28.13-.32.18-.32.47q0,13.75,0,27.5v2.93a38.22,38.22,0,0,0,8.76-1.91c.31-.1.34-.15.34-.45q0-6.86,0-13.72,0-5.39,0-10.79a3.08,3.08,0,0,1,1-2.35q1.92-1.89,3.82-3.8l2.1-2.1c.1-.1.11-.13.11-.13a.26.26,0,0,0,0-.11A6.79,6.79,0,0,1,58,30.36a6.63,6.63,0,0,1,6.27-2.86A6.37,6.37,0,0,1,70,32a6.34,6.34,0,0,1-1.7,7.08,6.44,6.44,0,0,1-7.08,1.44.73.73,0,0,0-.22-.05s-.09,0-.24.16q-2.48,2.52-5,5a.77.77,0,0,0-.27.63q0,8.8,0,17.59v3.75a33.26,33.26,0,0,0-1-58.22v.8c0,1.72,0,3.42,0,5.13,0,.2,0,.22.21.32a6.65,6.65,0,0,1,3.95,7.16,6.82,6.82,0,0,1-6.32,5.7H52.1a6.76,6.76,0,0,1-6.72-5.3,6.61,6.61,0,0,1,3.91-7.58c.15-.07.16-.08.16-.25q0-4,0-8c0-.18,0-.18-.18-.24a31.53,31.53,0,0,0-9.48-1.7c-.65,0-1.3,0-2,0l-.55,0V23.51a2.6,2.6,0,0,1-2.85,2.88H30.26c-.19,0-.23,0-.31.2a6.69,6.69,0,0,1-6.12,4,6.76,6.76,0,0,1-.29-13.51,6.64,6.64,0,0,1,6.43,4,1,1,0,0,0,.11.19l1.33,0h.73V6A33.33,33.33,0,0,0,22,67.57v-3q0-5.19,0-10.38a.64.64,0,0,0-.17-.35c-.44-.45-.88-.9-1.33-1.35l-1.19-1.2s-.1-.1-.13-.1a.43.43,0,0,0-.14,0,6.75,6.75,0,1,1-2.49-13,6.76,6.76,0,0,1,6.25,9.28.43.43,0,0,0,0,.14Zm-6.22,0h0a2.54,2.54,0,1,1,0-5.08h0a2.54,2.54,0,0,1,0,5.08Zm22.2-10.06A2.58,2.58,0,0,1,36.2,35a2.55,2.55,0,0,1,4.36-1.77A2.48,2.48,0,0,1,41.3,35,2.55,2.55,0,0,1,38.75,37.58Zm25-.86a2.53,2.53,0,0,1-2.56-2.51,2.5,2.5,0,0,1,.74-1.79,2.52,2.52,0,0,1,1.8-.76h0a2.55,2.55,0,0,1,2.55,2.52A2.5,2.5,0,0,1,65.53,36,2.53,2.53,0,0,1,63.73,36.73Zm-40-10.35h0a2.63,2.63,0,0,1-1.88-.84,2.52,2.52,0,0,1-.67-1.82,2.59,2.59,0,0,1,2.55-2.43h.1a2.56,2.56,0,0,1,1.77.8,2.48,2.48,0,0,1,.67,1.81A2.59,2.59,0,0,1,23.74,26.38ZM52,24.26h0a2.58,2.58,0,0,1-2.54-2.56A2.53,2.53,0,0,1,52,19.19h0a2.54,2.54,0,0,1,0,5.07Z"/><path class="cls-1" d="M38.72,77.5h-.29A38.75,38.75,0,0,1,38.82,0h.66a38.9,38.9,0,0,1,38,38.75A38.73,38.73,0,0,1,38.72,77.5Zm.09-77A38.25,38.25,0,0,0,38.43,77h.29A38.25,38.25,0,0,0,39.47.51Zm-.09,76.16h-.29A37.89,37.89,0,0,1,.85,38,38.07,38.07,0,0,1,38.77.85h.69A38,38,0,0,1,76.66,38.76a37.88,37.88,0,0,1-37.93,37.9Zm0-75.31A37.41,37.41,0,0,0,12,64.86,37.13,37.13,0,0,0,38.44,76.15h.28a37.41,37.41,0,0,0,.73-74.8ZM37.3,73.43l-.76-.11-1.25-.16h-.08a24.92,24.92,0,0,1-2.82-.43c-1.27-.29-2.51-.66-3.72-1l-.19-.05L27,71.22a1.28,1.28,0,0,1-1-1.38q0-3.7,0-7.4,0-4.48,0-9a2.21,2.21,0,0,0-.71-1.75c-.55-.53-1.09-1.07-1.63-1.62L23.51,50l-1.44-1.43a1.2,1.2,0,0,1-.28-1.42,5.57,5.57,0,0,0-1.32-6.17,5.71,5.71,0,0,0-6.17-1.13,5.66,5.66,0,0,0,2.21,10.87h0a5.66,5.66,0,0,0,2.12-.41,1.29,1.29,0,0,1,1.47.32l1.18,1.19c.45.45.91.9,1.35,1.36a1.7,1.7,0,0,1,.47,1.1q0,5.2,0,10.39v3.46a2.38,2.38,0,0,1,0,.25l-.11,1-.87-.42a34.41,34.41,0,0,1,10.34-64l.78-.13V22.39H31.42c-.5,0-1,0-1.49,0a1.31,1.31,0,0,1-1-.82,5.55,5.55,0,0,0-5.39-3.37,5.66,5.66,0,0,0,.25,11.32h0a5.59,5.59,0,0,0,5.12-3.36,1.31,1.31,0,0,1,1.3-.85H34.4c1.24,0,1.76-.54,1.76-1.78V4.33l.66,0,1,0c.76,0,1.39,0,2,0A32.63,32.63,0,0,1,49.62,6a1.22,1.22,0,0,1,.91,1.28q0,4,0,8a1.25,1.25,0,0,1-.81,1.26,5.54,5.54,0,0,0-3.28,6.34,5.62,5.62,0,0,0,5.66,4.45h.21a5.71,5.71,0,0,0,5.28-4.78,5.56,5.56,0,0,0-3.31-6,1.32,1.32,0,0,1-.86-1.32c0-1.61,0-3.21,0-4.82V7.62l1,.45a34.33,34.33,0,0,1,1,60.81l-1,.5V63.83q0-8.79,0-17.59A1.87,1.87,0,0,1,55,44.83c1.72-1.7,3.4-3.38,5-5a1.41,1.41,0,0,1,1.61-.37,5.65,5.65,0,0,0,7.37-7.12,5.34,5.34,0,0,0-4.75-3.77A5.59,5.59,0,0,0,58.94,31a5.71,5.71,0,0,0-.56,5.38,1.21,1.21,0,0,1-.33,1.41L56,39.86c-1.27,1.27-2.54,2.55-3.83,3.81a2,2,0,0,0-.65,1.57q0,5.4,0,10.79,0,6.86,0,13.72a1.41,1.41,0,0,1-1.09,1.5,39.84,39.84,0,0,1-9.18,2h-1v-4q0-13.75,0-27.5a1.45,1.45,0,0,1,1-1.47,5.55,5.55,0,0,0,3.14-6.28,5.67,5.67,0,0,0-11.08,0,5.58,5.58,0,0,0,3.12,6.29,1.5,1.5,0,0,1,1,1.51q0,12.58,0,25.16ZM16.52,38.84a6.14,6.14,0,0,1,4.3,1.72,6.06,6.06,0,0,1,1.43,6.72.7.7,0,0,0,.17.88l1.44,1.44.17.17c.54.54,1.08,1.08,1.63,1.61a2.71,2.71,0,0,1,.87,2.12q0,4.48,0,9,0,3.7,0,7.4a.79.79,0,0,0,.63.9l1.49.43.19.05c1.2.36,2.43.72,3.69,1a24.31,24.31,0,0,0,2.75.42h.1l1.26.16.2,0v-6q0-12.58,0-25.16a1,1,0,0,0-.69-1.06,6.09,6.09,0,0,1-3.4-6.86,6.17,6.17,0,0,1,12.05,0,6,6,0,0,1-3.42,6.85,1,1,0,0,0-.66,1q0,13.75,0,27.5v3.54h.49a39.33,39.33,0,0,0,9.06-2,.92.92,0,0,0,.75-1Q51,62.88,51,56q0-5.39,0-10.79a2.5,2.5,0,0,1,.8-1.93q1.92-1.89,3.82-3.81l2.1-2.1a.72.72,0,0,0,.21-.87,6.2,6.2,0,0,1,.61-5.84,6.11,6.11,0,0,1,5.71-2.61,5.81,5.81,0,0,1,5.17,4.1,5.77,5.77,0,0,1-1.55,6.45,5.87,5.87,0,0,1-6.46,1.31.92.92,0,0,0-1.09.25c-1.6,1.62-3.28,3.3-5,5a1.36,1.36,0,0,0-.45,1.06q0,8.8,0,17.59v4.73l.25-.13a33.83,33.83,0,0,0-1-59.91l-.25-.12v2.05c0,1.61,0,3.22,0,4.82a.82.82,0,0,0,.57.86,6.06,6.06,0,0,1,3.6,6.52,6.22,6.22,0,0,1-5.76,5.2H52.1A6.1,6.1,0,0,1,46,23a6,6,0,0,1,3.57-6.91.75.75,0,0,0,.51-.8q0-4,0-8a.73.73,0,0,0-.57-.8A32.13,32.13,0,0,0,39.8,4.75c-.64,0-1.26,0-2,0l-1,0h-.17v18.7a2,2,0,0,1-2.26,2.28H30.25a.82.82,0,0,0-.84.56A6.09,6.09,0,0,1,23.83,30h0a6.16,6.16,0,0,1-.27-12.32h.23a6.08,6.08,0,0,1,5.64,3.67c.05.12.26.5.53.53.48,0,1,0,1.46,0h1.33V5.29l-.2,0a33.91,33.91,0,0,0-10.2,63.09l.22.11,0-.26c0-.08,0-.15,0-.21V64.59q0-5.19,0-10.38a1.21,1.21,0,0,0-.34-.76c-.44-.46-.89-.91-1.34-1.35L19.75,50.9a.8.8,0,0,0-.93-.2,6.17,6.17,0,0,1-2.3.45h0a6.16,6.16,0,1,1,0-12.31ZM36.45,72.46l-.28,0-.77-.09h-.1a24.3,24.3,0,0,1-2.73-.42c-1.22-.28-2.45-.65-3.64-1l-1.71-.5c-.29-.08-.37-.21-.37-.56q0-3.7,0-7.4,0-4.48,0-9a3.06,3.06,0,0,0-1-2.37c-.6-.58-1.2-1.18-1.79-1.77l-1.45-1.44a.56.56,0,0,1-.13-.18l0-.09a.62.62,0,0,1,.06-.23,6.51,6.51,0,0,0-6-8.93A6.56,6.56,0,0,0,14,39,6.51,6.51,0,0,0,16.52,51.5h0A6.51,6.51,0,0,0,19,51a.41.41,0,0,1,.55.12l1.19,1.2c.45.45.9.89,1.33,1.35a.87.87,0,0,1,.24.52q0,4.87,0,9.73v4l-.37-.2A33.35,33.35,0,0,1,5.28,35.13,34,34,0,0,1,32.11,5.75l.3-.05V21.54h-1l-1.34,0H30l-.07-.09a1.33,1.33,0,0,1-.14-.24,6.37,6.37,0,0,0-6.19-3.86,6.51,6.51,0,0,0,.28,13h0a6.44,6.44,0,0,0,5.89-3.86.48.48,0,0,1,.54-.35h4.14A2.35,2.35,0,0,0,37,23.51V5.15l.79,0c.69,0,1.34-.05,2,0a31.8,31.8,0,0,1,9.56,1.71c.28.1.34.19.34.47q0,4,0,8a.42.42,0,0,1-.31.48,6.37,6.37,0,0,0-3.77,7.3,6.51,6.51,0,0,0,6.48,5.11h.24a6.57,6.57,0,0,0,6.08-5.49,6.4,6.4,0,0,0-3.8-6.89.48.48,0,0,1-.36-.54c0-1.61,0-3.21,0-4.83V9l.36.18a33.51,33.51,0,0,1,1,58.67l-.37.2V63.83q0-8.79,0-17.59a1,1,0,0,1,.34-.81c1.79-1.77,3.42-3.41,5-5a.54.54,0,0,1,.72-.17,6.2,6.2,0,0,0,6.82-1.38,6.1,6.1,0,0,0,1.63-6.81,6.14,6.14,0,0,0-5.47-4.32,6.37,6.37,0,0,0-6,2.75,6.55,6.55,0,0,0-.64,6.16.49.49,0,0,1,0,.23c0,.06,0,.14-.18.27l-2.27,2.27q-1.82,1.82-3.65,3.63a2.85,2.85,0,0,0-.9,2.17q0,4.32,0,8.63V56q0,6.86,0,13.72c0,.42-.1.55-.51.69a38.47,38.47,0,0,1-8.82,1.93l-.27,0V69.19q0-13.75,0-27.5a.62.62,0,0,1,.46-.7,6.39,6.39,0,0,0,3.62-7.24,6.52,6.52,0,0,0-12.73,0A6.43,6.43,0,0,0,36,41a.67.67,0,0,1,.49.75q0,11.92,0,23.84Zm-9.1-2.53h0l1.69.49c1.21.36,2.43.72,3.64,1a24,24,0,0,0,2.68.41h.1l.49.06V65.56q0-11.92,0-23.84c0-.2,0-.2-.19-.29a6.93,6.93,0,0,1-3.87-7.81,7,7,0,0,1,13.7,0,6.88,6.88,0,0,1-3.89,7.8.64.64,0,0,0-.16.09.61.61,0,0,0,0,.16q0,13.75,0,27.5v2.66A38.1,38.1,0,0,0,50,70l.17-.07s0,0,0-.15q0-6.86,0-13.72V53.87q0-4.31,0-8.63a3.32,3.32,0,0,1,1.05-2.53q1.83-1.8,3.65-3.63l2.27-2.27h0a7,7,0,0,1,.71-6.58,6.83,6.83,0,0,1,6.5-3,6.61,6.61,0,0,1,5.89,4.66,6.57,6.57,0,0,1-1.76,7.34,6.67,6.67,0,0,1-7.34,1.49l-.12,0-.08.08c-1.58,1.6-3.22,3.24-5,5a.53.53,0,0,0-.19.45q0,8.79,0,17.59v3.32a33,33,0,0,0-1-57.39v.69c0,1.61,0,3.22,0,4.83,0,0,0,0,0,.06l.06,0a6.9,6.9,0,0,1,4.09,7.43,7.08,7.08,0,0,1-6.56,5.9H52.1a7,7,0,0,1-7-5.5,6.86,6.86,0,0,1,4-7.87h0v0q0-4,0-8h0a31.3,31.3,0,0,0-9.41-1.69c-.62,0-1.24,0-1.89,0h-.37V23.51a2.85,2.85,0,0,1-3.1,3.13H30.2l0,.05a6.94,6.94,0,0,1-6.35,4.16h0a7,7,0,0,1-.3-14A6.89,6.89,0,0,1,30.2,21l0,0H31.9V6.3A33.51,33.51,0,0,0,5.77,35.19a32.86,32.86,0,0,0,16,32v-3.2q0-4.86,0-9.73a.46.46,0,0,0-.1-.18c-.44-.45-.88-.9-1.33-1.34l-1.2-1.21h0a7,7,0,0,1-2.62.51h0a7,7,0,0,1,0-14A7,7,0,0,1,23,47.58L24.46,49c.59.59,1.18,1.18,1.78,1.76a3.53,3.53,0,0,1,1.13,2.73q0,4.48,0,9,0,3.7,0,7.4S27.35,69.91,27.35,69.92Zm-10.81-22h0a2.83,2.83,0,0,1-2.79-2.83,2.78,2.78,0,1,1,2.8,2.83Zm0-5.08a2.3,2.3,0,0,0-2.32,2.25,2.33,2.33,0,0,0,2.3,2.33,2.29,2.29,0,0,0,0-4.58Zm22.18-5h0A2.84,2.84,0,0,1,36,35a2.8,2.8,0,0,1,4.79-1.95,2.73,2.73,0,0,1,.81,2A2.8,2.8,0,0,1,38.75,37.83Zm0-5.06A2.3,2.3,0,0,0,36.45,35a2.33,2.33,0,0,0,2.3,2.28A2.3,2.3,0,0,0,41.05,35a2.23,2.23,0,0,0-.66-1.6A2.29,2.29,0,0,0,38.76,32.77Zm25,4.21h0a2.78,2.78,0,0,1,0-5.55,2.8,2.8,0,0,1,2.8,2.76,2.75,2.75,0,0,1-.8,2A2.78,2.78,0,0,1,63.73,37Zm0-5.05a2.28,2.28,0,1,0,1.64,3.87A2.25,2.25,0,0,0,66,34.19,2.3,2.3,0,0,0,63.71,31.92Zm-40-5.29h0a2.88,2.88,0,0,1-2.06-.92,2.77,2.77,0,0,1-.74-2A2.84,2.84,0,0,1,23.74,21h.1a2.82,2.82,0,0,1,2,.88,2.72,2.72,0,0,1,.74,2A2.84,2.84,0,0,1,23.74,26.63Zm0-5.09a2.33,2.33,0,0,0-2.29,2.19A2.27,2.27,0,0,0,22,25.37a2.39,2.39,0,0,0,1.7.76A2.33,2.33,0,0,0,26,23.9a2.22,2.22,0,0,0-.6-1.63,2.31,2.31,0,0,0-1.6-.72Zm28.24,3h0a2.84,2.84,0,0,1-2.79-2.81A2.79,2.79,0,1,1,52,24.51Zm0-5.07a2.29,2.29,0,0,0-2.31,2.27A2.33,2.33,0,0,0,52,24h0a2.29,2.29,0,0,0,0-4.57Z"/></g></g></svg>