<svg xmlns="http://www.w3.org/2000/svg" viewBox="0 0 59.93 60"><defs><style>.cls-1{fill:#fff;}</style></defs><title>CNTT</title><g id="Layer_2" data-name="Layer 2"><g id="Layer_1-2" data-name="Layer 1"><g id="Layer_2-2" data-name="Layer 2"><g id="Layer_1-2-2" data-name="Layer 1-2"><path class="cls-1" d="M14.77,53.37c-3.1,0-5.67-1.48-7.94-4.51a30.88,30.88,0,0,1-5.1-9.39c-.26-.87-.23-1.39.67-1.9A61.49,61.49,0,0,1,17.68,31.1a2.72,2.72,0,0,1,.67-.12c.73,0,.84.7.87,1a34.38,34.38,0,0,0,6.15,14.83l.12.15-.06.18c-.16.48-.31.84-.45,1.18s-.26.62-.38,1-.26.81-.39,1.27-.3,1-.45,1.45l-.07.22-2.5.36-5,.7A10.31,10.31,0,0,1,14.77,53.37ZM18.39,31.7a2.14,2.14,0,0,0-.52.09,60.81,60.81,0,0,0-15.09,6.4c-.51.29-.54.39-.34,1.05a30.19,30.19,0,0,0,5,9.19c2.45,3.27,5.26,4.6,8.68,4.12l5-.68,2.06-.29c.12-.38.25-.77.37-1.21s.28-.92.4-1.3.26-.71.39-1,.24-.59.37-1a35.12,35.12,0,0,1-6.19-15c0-.28-.1-.33-.1-.33Z"/><path class="cls-1" d="M14.77,53.57c-3.14,0-5.78-1.5-8.1-4.58a31.06,31.06,0,0,1-5.12-9.51,1.53,1.53,0,0,1,.77-2.13,61.73,61.73,0,0,1,15.33-6.49,2.93,2.93,0,0,1,.72-.12c.59,0,1,.38,1.07,1.12a34.18,34.18,0,0,0,6.11,14.78l.17.23-.09.28c-.16.48-.31.84-.45,1.18v.06c-.12.29-.24.58-.36.94s-.26.77-.39,1.26-.3,1-.45,1.46l-.11.33-2.62.38-5,.71A10.61,10.61,0,0,1,14.77,53.57Zm3.58-22.45a2.59,2.59,0,0,0-.62.11A61.28,61.28,0,0,0,2.5,37.71c-.77.46-.84.84-.59,1.68A30.72,30.72,0,0,0,7,48.77c2.57,3.43,5.55,4.84,9.19,4.33l5-.7L23.52,52v-.1c.15-.44.3-1,.45-1.44s.27-.91.39-1.28.25-.67.36-1v0c.14-.35.29-.7.45-1.17V47l-.05-.07A34.58,34.58,0,0,1,18.93,32c0-.43-.09-.84-.58-.84ZM14.79,52.79c-2.9,0-5.37-1.42-7.52-4.29a30.36,30.36,0,0,1-5-9.21c-.22-.77-.17-.94.43-1.28a61,61,0,0,1,15.14-6.42,2.32,2.32,0,0,1,.57-.09h.12a.85.85,0,0,1,.15.44,34.93,34.93,0,0,0,6.17,15l.06.09v.09c-.13.38-.26.68-.37,1s-.26.64-.39,1-.26.83-.4,1.29-.25.83-.37,1.22v.12L21.17,52l-5,.71a9.66,9.66,0,0,1-1.41.09Zm3.48-20.9-.36.08a60.62,60.62,0,0,0-15,6.38c-.43.25-.43.25-.25.83a30,30,0,0,0,5,9.13c2.38,3.18,5.16,4.51,8.51,4l5-.7L23,51.37l.33-1.09c.11-.36.28-.93.4-1.31s.26-.72.4-1.05.22-.53.33-.87a35.34,35.34,0,0,1-6.14-15,1.46,1.46,0,0,0,0-.16Z"/><path class="cls-1" d="M.32,35.69V35.1c0-1,0-1.94-.06-2.87a37.6,37.6,0,0,1,.12-6,30.1,30.1,0,0,1,6-14.5A3.8,3.8,0,0,1,10.45,10l4.17.84,1.39.28.09.14c.33.57.63,1.09.91,1.59a22.81,22.81,0,0,0,1.8,2.87A2.84,2.84,0,0,1,19.53,18c-.15,1.31-.27,2.62-.39,3.94-.16,1.68-.33,3.41-.53,5.12a2,2,0,0,1-1.15,1.49A61.82,61.82,0,0,0,2.26,34.75a7.78,7.78,0,0,1-.71.35l-.72.34Zm9.24-25a3.15,3.15,0,0,0-2.62,1.55A29.42,29.42,0,0,0,1.12,26.32,37.09,37.09,0,0,0,1,32.18C1,33,1,33.73,1,34.5l.2-.09.65-.32a62.53,62.53,0,0,1,15.37-6.22,1.35,1.35,0,0,0,.61-.87c.2-1.7.37-3.43.53-5.1.12-1.32.26-2.64.39-4a2.12,2.12,0,0,0-.57-1.74,23.48,23.48,0,0,1-1.86-3l-.82-1.44-1.07-.22c-1.22-.25-2.69-.55-4.16-.84A4,4,0,0,0,9.56,10.66Z"/><path class="cls-1" d="M.13,36V35.1c0-1,0-2-.06-2.86a37.78,37.78,0,0,1,.12-6,30.31,30.31,0,0,1,6-14.62,4,4,0,0,1,4.3-1.82c1.48.29,2.95.59,4.16.84l1.48.3.12.22c.33.57.63,1.09.91,1.59A22.53,22.53,0,0,0,19,15.58,3,3,0,0,1,19.74,18c-.14,1.25-.26,2.52-.38,3.77v.17c-.15,1.59-.33,3.4-.53,5.12a2.16,2.16,0,0,1-1.3,1.66,61.6,61.6,0,0,0-15.19,6.2,7.44,7.44,0,0,1-.7.34l-.77.35ZM9.53,10.12a3.65,3.65,0,0,0-3,1.76A29.92,29.92,0,0,0,.58,26.32a37.4,37.4,0,0,0-.12,5.94c0,.88.06,1.88.06,2.88v.28l.27-.16.72-.34.7-.34a62,62,0,0,1,15.23-6.19,1.81,1.81,0,0,0,1-1.32c.21-1.73.38-3.53.53-5.12v-.17c.12-1.26.24-2.52.38-3.78a2.64,2.64,0,0,0-.68-2.14A23,23,0,0,1,16.86,13c-.28-.5-.58-1-.91-1.55l0-.07-1.3-.26-4.17-.84A4.83,4.83,0,0,0,9.53,10.12ZM.86,34.83v-.3c0-.77,0-1.55-.05-2.32a37.29,37.29,0,0,1,.12-5.89A29.58,29.58,0,0,1,6.78,12.08a3.26,3.26,0,0,1,3.58-1.55c1.49.29,2.95.58,4.16.84l1.15.23,0,.08c.3.51.57,1,.82,1.44a23.35,23.35,0,0,0,1.84,2.93A2.32,2.32,0,0,1,19,17.94c-.15,1.32-.27,2.63-.39,3.95-.15,1.55-.33,3.38-.53,5.11a1.49,1.49,0,0,1-.77,1A62.35,62.35,0,0,0,2,34.28c-.17.1-.35.18-.63.31H1.31Zm.38-.46,0,.05,0-.09ZM9.56,10.84a3,3,0,0,0-2.47,1.47A29.2,29.2,0,0,0,1.3,26.37a36.92,36.92,0,0,0-.12,5.82c0,.67,0,1.35.05,2L1.81,34a62.7,62.7,0,0,1,15.4-6.29,1.25,1.25,0,0,0,.47-.7c.21-1.72.38-3.51.53-5.1.12-1.32.26-2.64.4-4a1.94,1.94,0,0,0-.53-1.6,23.45,23.45,0,0,1-1.86-3L15.45,12l-1-.2c-1.22-.25-2.69-.55-4.16-.84A3.82,3.82,0,0,0,9.56,10.84Z"/><path class="cls-1" d="M46.22,23.73a4.64,4.64,0,0,1-2.9-1.5L43.11,22a60.32,60.32,0,0,0-14.41-9.11l-.22-.1v-.25a6.18,6.18,0,0,0-1.41-4.84c-.31-.35,0-1.15.2-1.44q1.23-1.43,2.5-2.83C30.62,2.54,31.26,1.81,32,1A2.07,2.07,0,0,1,33.6.19a4.49,4.49,0,0,1,1.51.35l.52.17A71.75,71.75,0,0,1,44,3.66a4.55,4.55,0,0,1,2.11,2.19A27.19,27.19,0,0,1,48.86,17v6.32h-.93a.65.65,0,0,0-.22,0A3.1,3.1,0,0,1,46.22,23.73Zm-17-11.35a60.88,60.88,0,0,1,14.36,9.1l.22.19A4,4,0,0,0,46.22,23a2.41,2.41,0,0,0,1.15-.33,1.18,1.18,0,0,1,.57-.12h.19V17A26.46,26.46,0,0,0,45.49,6.19a3.79,3.79,0,0,0-1.73-1.86,71,71,0,0,0-8.33-2.92,5,5,0,0,1-.57-.19,3.87,3.87,0,0,0-1.25-.3,1.33,1.33,0,0,0-1.09.53c-.7.87-1.45,1.65-2.19,2.51s-1.68,1.87-2.45,2.83a1.08,1.08,0,0,0-.17.53A7,7,0,0,1,29.23,12.39Z"/><path class="cls-1" d="M46.22,23.93a4.65,4.65,0,0,1-3-1.55L43,22.19a60.08,60.08,0,0,0-14.34-9.08L28.3,13v-.38a6,6,0,0,0-1.35-4.69c-.39-.45-.09-1.35.2-1.7.84-1,1.73-2,2.5-2.83s1.49-1.66,2.21-2.5A2.25,2.25,0,0,1,33.61,0a4.64,4.64,0,0,1,1.55.36c.2.07.36.13.5.17a72.1,72.1,0,0,1,8.47,3,4.76,4.76,0,0,1,2.22,2.32A27.38,27.38,0,0,1,49.06,17v6.51H47.75A3.28,3.28,0,0,1,46.22,23.93ZM28.65,12.71l.11,0A60.5,60.5,0,0,1,43.24,21.9l.22.19a4.44,4.44,0,0,0,2.76,1.46,2.93,2.93,0,0,0,1.4-.39.67.67,0,0,1,.32-.05h.77V17A27,27,0,0,0,46,5.93a4.35,4.35,0,0,0-2-2.06A71.72,71.72,0,0,0,35.58.93a5.14,5.14,0,0,1-.49-.16h0A4.34,4.34,0,0,0,33.61.39a1.89,1.89,0,0,0-1.46.7c-.73.84-1.47,1.67-2.21,2.51s-1.66,1.82-2.5,2.83c-.23.27-.42,1-.21,1.19a6.45,6.45,0,0,1,1.46,5ZM46.22,23.22a4.17,4.17,0,0,1-2.54-1.36l-.22-.19a60.7,60.7,0,0,0-14.31-9.13L29,12.49v-.11a6.78,6.78,0,0,0-1.55-4.93l0-.05V7.31a1.25,1.25,0,0,1,.22-.65L30.2,3.83l2.22-2.51A1.55,1.55,0,0,1,33.61.74,4,4,0,0,1,34.93,1l.57.19a71.06,71.06,0,0,1,8.34,2.93,4,4,0,0,1,1.84,1.92A26.64,26.64,0,0,1,48.34,17v5.79h-.39a1,1,0,0,0-.48.09A2.6,2.6,0,0,1,46.22,23.22Zm-16.8-11a61,61,0,0,1,14.29,9.1l.22.19a3.9,3.9,0,0,0,2.32,1.27,2.21,2.21,0,0,0,1.05-.3,1.35,1.35,0,0,1,.67-.14h0V17A26.26,26.26,0,0,0,45.32,6.24a3.58,3.58,0,0,0-1.63-1.72,70.6,70.6,0,0,0-8.31-2.91c-.18,0-.36-.12-.56-.19a3.87,3.87,0,0,0-1.21-.3,1.14,1.14,0,0,0-.91.43c-.73.84-1.47,1.67-2.21,2.51S28.83,5.91,28,6.89a.91.91,0,0,0-.12.33A7.07,7.07,0,0,1,29.43,12.25Z"/><path class="cls-1" d="M34.19,46.88a1,1,0,0,1-.65-.19,5.09,5.09,0,0,0-3.41-1.07c-.68,0-1.37.07-2.1.14h-.29l-.12-.17a35.27,35.27,0,0,1-6.19-15.23L21.35,30l.38,0L24,29.69c1.79-.22,3.65-.43,5.47-.6a52.89,52.89,0,0,1,6-.28,36.85,36.85,0,0,1,4.45.39l1.47.18a1.31,1.31,0,0,1,.91.57c.67,1.15,1.31,2.32,2,3.58l.84,1.51-.09.18A32.43,32.43,0,0,1,35.19,46.6,1.87,1.87,0,0,1,34.19,46.88Zm-4.06-2A5.77,5.77,0,0,1,34,46.14h.19a1.17,1.17,0,0,0,.58-.15,31.68,31.68,0,0,0,9.6-10.94l-.64-1.16c-.7-1.25-1.34-2.42-2-3.57a.6.6,0,0,0-.36-.21l-1.48-.18c-1.44-.18-2.93-.36-4.38-.39a51.67,51.67,0,0,0-5.92.28c-1.81.16-3.66.38-5.42.6l-1.89.22A34.45,34.45,0,0,0,28.13,45C28.76,45,29.43,44.9,30.12,44.9Z"/><path class="cls-1" d="M34.2,47.07a1.2,1.2,0,0,1-.77-.22,4.9,4.9,0,0,0-3.3-1c-.67,0-1.36.07-2.08.14l-.4,0-.19-.26a35.45,35.45,0,0,1-6.19-15.32l-.09-.58.58-.07,1.82-.22.46-.05c1.7-.2,3.63-.43,5.48-.6a54.43,54.43,0,0,1,6-.26A37.24,37.24,0,0,1,40,29l1.47.17a1.49,1.49,0,0,1,1.06.67c.67,1.16,1.32,2.32,2,3.58l.89,1.6-.14.27a32.63,32.63,0,0,1-10,11.43A2,2,0,0,1,34.2,47.07Zm-4.06-1.64a5.26,5.26,0,0,1,3.54,1.11.83.83,0,0,0,.53.14,1.7,1.7,0,0,0,.89-.24,32.25,32.25,0,0,0,9.82-11.32L45,35l-.77-1.42c-.69-1.25-1.34-2.42-2-3.58a1.11,1.11,0,0,0-.77-.48l-1.46-.15c-1.45-.18-2.95-.36-4.44-.39a53,53,0,0,0-6,.28c-1.84.16-3.77.39-5.47.6l-.46.05-1.82.22H21.6v.18A35.07,35.07,0,0,0,27.74,45.5l.06.08H28A19.09,19.09,0,0,1,30.13,45.43Zm4.06.91a.77.77,0,0,1-.26,0h0a5.58,5.58,0,0,0-3.75-1.19c-.66,0-1.33.06-2,.13H28l-.06-.09A34.61,34.61,0,0,1,22,30.73v-.2h.2l1.84-.34h.14c1.74-.21,3.55-.43,5.31-.58a52.87,52.87,0,0,1,5.94-.28,36.1,36.1,0,0,1,4.4.39l1.48.18a.77.77,0,0,1,.5.3c.68,1.18,1.35,2.39,2,3.58l.7,1.25-.05.09a31.85,31.85,0,0,1-9.67,11A1.35,1.35,0,0,1,34.2,46.34Zm-.12-.39h.1a1,1,0,0,0,.46-.11,31.46,31.46,0,0,0,9.5-10.78L43.55,34c-.65-1.18-1.32-2.39-2-3.57a.47.47,0,0,0-.21-.12l-1.49-.18a43.33,43.33,0,0,0-4.37-.39,52.84,52.84,0,0,0-5.9.28c-1.76.15-3.56.37-5.3.58h-.14l-1.69.22a34.19,34.19,0,0,0,5.73,14c.66-.06,1.31-.12,2-.12A6,6,0,0,1,34.07,45.94Z"/><path class="cls-1" d="M42.41,57a1.28,1.28,0,0,1-.56-.11c-1.55-.77-3.24-1.63-5.36-2.79a1.79,1.79,0,0,1-.63-.68l-.09-.11v-.61a1.21,1.21,0,0,0,0-.15v-.19A7.14,7.14,0,0,0,36,49.9c-.08-1,.77-1.55,1.63-2.14a5.81,5.81,0,0,0,.77-.6,34,34,0,0,0,8.89-10.88,3.17,3.17,0,0,1,2.86-1.7,2.8,2.8,0,0,1,2.39,1.2c1.46,2.19,2.67,4,3.79,6a2.56,2.56,0,0,1,0,2.2,30.64,30.64,0,0,1-13,12.78A2.14,2.14,0,0,1,42.41,57ZM36.5,53a1.11,1.11,0,0,0,.34.39c2.11,1.15,3.76,2,5.33,2.77a1.29,1.29,0,0,0,.85-.11A29.92,29.92,0,0,0,55.75,43.6a1.85,1.85,0,0,0,0-1.48c-1.11-1.91-2.32-3.75-3.77-5.93a2.07,2.07,0,0,0-1.78-.87A2.44,2.44,0,0,0,48,36.61a34.72,34.72,0,0,1-9,11.12c-.27.23-.57.43-.87.64-.7.48-1.36.94-1.32,1.48a8,8,0,0,1-.26,2.66,1.92,1.92,0,0,1,0,.24A.68.68,0,0,0,36.5,53Z"/><path class="cls-1" d="M42.41,57.16a1.47,1.47,0,0,1-.63-.13c-1.59-.77-3.24-1.63-5.37-2.79a2,2,0,0,1-.7-.77l-.08-.12V52.6a.37.37,0,0,0,0-.05v-.13l.06-.14A7,7,0,0,0,35.91,50c-.09-1.07.87-1.73,1.72-2.32A7.74,7.74,0,0,0,38.4,47a33.78,33.78,0,0,0,8.75-10.84,3.37,3.37,0,0,1,3-1.8,3,3,0,0,1,2.55,1.28c1.47,2.19,2.68,4,3.8,6a2.74,2.74,0,0,1,.05,2.39A30.82,30.82,0,0,1,43.43,56.92,2.32,2.32,0,0,1,42.41,57.16ZM36,53.2l0,.07a1.68,1.68,0,0,0,.57.63c2.12,1.16,3.78,2,5.36,2.78a1.71,1.71,0,0,0,1.33-.12,30.44,30.44,0,0,0,13-12.7,2.38,2.38,0,0,0,0-2c-1.12-1.92-2.32-3.77-3.79-6a2.61,2.61,0,0,0-2.23-1.11,3,3,0,0,0-2.69,1.61,34.17,34.17,0,0,1-8.84,10.93c-.25.21-.53.4-.77.6-.85.59-1.64,1.13-1.55,2a7.35,7.35,0,0,1-.25,2.52v.08a.61.61,0,0,1,0,.15v.48Zm6.43,3.21a.73.73,0,0,1-.3-.05c-1.55-.77-3.23-1.62-5.34-2.77a1.24,1.24,0,0,1-.41-.46v-.41a1.59,1.59,0,0,0,0-.22v-.06a7.84,7.84,0,0,0,.24-2.59c-.05-.65.65-1.13,1.4-1.65.3-.21.6-.41.86-.63a34.52,34.52,0,0,0,8.95-11.06,2.63,2.63,0,0,1,2.38-1.39,2.27,2.27,0,0,1,1.94,1c1.46,2.17,2.66,4,3.78,5.94a2,2,0,0,1,0,1.67A30.11,30.11,0,0,1,43.11,56.25a1.69,1.69,0,0,1-.72.17ZM36.7,53a.77.77,0,0,0,.23.26c2.11,1.15,3.75,2,5.33,2.76a1.17,1.17,0,0,0,.67-.11A29.73,29.73,0,0,0,55.59,43.52a1.67,1.67,0,0,0,0-1.29c-1.12-1.92-2.32-3.75-3.76-5.91a1.89,1.89,0,0,0-1.62-.77,2.24,2.24,0,0,0-2,1.18,34.91,34.91,0,0,1-9.06,11.15c-.27.23-.58.44-.87.64C37.6,49,37,49.39,37,49.82a8.31,8.31,0,0,1-.25,2.7,2.32,2.32,0,0,1,0,.23Z"/><path class="cls-1" d="M20.91,27.55l1-9.37.18-.09,1.55-.77c1.15-.6,2.06-1.07,3-1.49a2.42,2.42,0,0,1,2-.14c3.69,2.22,7.49,4.58,11.61,7.21a12.52,12.52,0,0,1,1.85,1.55l.51.49a3,3,0,0,1,.48.64l.16.25.25.36-.39.19-.31.18a1.83,1.83,0,0,1-.92.35c-.68,0-1.35-.08-2-.13s-1.55-.13-2.32-.13c-4,0-7.29.11-10.3.26-1.23.06-2.49.22-3.82.4l-2.07.26Zm1.63-8.89-.86,8.06,1.61-.21c1.35-.18,2.62-.35,3.87-.41,3-.15,6.29-.22,10.27-.26h0c.86,0,1.66.07,2.42.14s1.28.12,1.93.13h0a1.35,1.35,0,0,0,.54-.24h0a2.21,2.21,0,0,0-.33-.43l-.52-.49a12,12,0,0,0-1.74-1.46c-4.09-2.62-7.88-5-11.56-7.2a.58.58,0,0,0-.29-.05,2.75,2.75,0,0,0-1,.24c-.94.42-1.84.88-3,1.47Z"/><path class="cls-1" d="M20.66,27.77l1-9.71.27-.14,1.41-.72.16-.09c1.11-.57,2.06-1.06,3-1.5a2.59,2.59,0,0,1,2.14-.12c3.72,2.24,7.51,4.6,11.61,7.21a12.69,12.69,0,0,1,1.88,1.55l0,0,.46.43a3.14,3.14,0,0,1,.51.67l.16.25.37.54-.6.28-.29.16a2,2,0,0,1-1,.38c-.69,0-1.35-.08-2-.13s-1.55-.13-2.32-.13c-4,0-7.28.11-10.3.26-1.23.06-2.48.22-3.8.4l-2.07.26ZM22,18.3l-.93,9h.22l2.07-.26c1.33-.18,2.59-.34,3.87-.4,3-.14,6.3-.22,10.31-.26.77,0,1.59.07,2.32.13s1.31.12,2,.13a1.66,1.66,0,0,0,.77-.35l.33-.19.19-.09L43,25.88l-.16-.26a2.93,2.93,0,0,0-.45-.6L42,24.58l0,0A12.33,12.33,0,0,0,40.1,23c-4.08-2.61-7.86-5-11.61-7.21a2.24,2.24,0,0,0-1.8.15c-1,.43-1.92.92-3,1.49l-.16.09-1.41.73Zm-.55,8.63.87-8.41.09,0,1.34-.67h.06c1.16-.6,2.06-1.06,3-1.48a2,2,0,0,1,1.48-.18c3.72,2.24,7.5,4.59,11.61,7.2a12.08,12.08,0,0,1,1.73,1.42l.52.49a2.43,2.43,0,0,1,.36.47l.1.16-.15.1a1.46,1.46,0,0,1-.68.33c-.67,0-1.35-.08-1.94-.13-.77-.07-1.55-.14-2.41-.14-4,0-7.25.11-10.26.26-1.25.06-2.52.23-3.87.4l-1.62.21Zm1.24-8.16-.77,7.74,1.34-.19c1.35-.18,2.62-.35,3.87-.41,3-.15,6.29-.22,10.28-.26.88,0,1.71.07,2.45.14s1.26.11,1.91.13a.81.81,0,0,0,.28-.12,1.46,1.46,0,0,0-.19-.23l-.52-.49a11.73,11.73,0,0,0-1.71-1.44c-4-2.62-7.82-5-11.53-7.2a.45.45,0,0,0-.19,0,2.56,2.56,0,0,0-.93.22c-.93.41-1.82.87-2.95,1.46l-.09,0Z"/><path class="cls-1" d="M59.67,31.44l-1.6-.55c-1.1-.37-2.14-.73-3.17-1.15a1.94,1.94,0,0,1-.84-1.07,11.94,11.94,0,0,1-.49-1.27,4.68,4.68,0,0,0-1-2,4.07,4.07,0,0,1-1.22-3.55v-.77l-.07-1.55c-.09-2.21-.19-4.51-.39-6.75a14.92,14.92,0,0,0-.35-2c-.12-.57-.26-1.17-.33-1.77L50.08,8l.77.77C57.23,15.3,60.14,22.56,59.69,31ZM51.16,10.13l.12.51a15.88,15.88,0,0,1,.36,2.08c.19,2.26.29,4.56.39,6.78L52.09,21v.84a3.49,3.49,0,0,0,1,3,5.25,5.25,0,0,1,1.21,2.32,11.52,11.52,0,0,0,.43,1.14,2.3,2.3,0,0,0,.47.77c1,.41,2,.77,3.1,1.13l.67.22c.33-7.66-2.24-14.32-7.76-20.36Z"/><path class="cls-1" d="M59.85,31.7,58,31c-1.08-.37-2.11-.72-3.1-1.13a2.06,2.06,0,0,1-.94-1.16,12.05,12.05,0,0,1-.5-1.29,4.58,4.58,0,0,0-1-1.92,4.29,4.29,0,0,1-1.28-3.69v-.77l-.07-1.55c-.09-2.21-.19-4.49-.39-6.74a14.79,14.79,0,0,0-.35-2c-.12-.55-.26-1.17-.34-1.79l-.21-1.66L51,8.59c6.42,6.59,9.29,13.93,8.89,22.37ZM50.33,8.51l.06.51c.08.6.21,1.22.33,1.75a15.06,15.06,0,0,1,.36,2c.19,2.26.29,4.54.39,6.76l.07,1.55v.81a4,4,0,0,0,1.15,3.41,4.81,4.81,0,0,1,1.05,2.06,11.78,11.78,0,0,0,.48,1.25c.17.37.39.83.74,1,1,.41,2,.77,3.1,1.12l1.41.49V31C59.89,22.62,57,15.4,50.68,8.89Zm8.84,22.17-1-.33c-1.07-.36-2.07-.7-3.1-1.11-.19-.08-.34-.35-.57-.85a11.33,11.33,0,0,1-.43-1.14A5.16,5.16,0,0,0,52.91,25a3.58,3.58,0,0,1-1-3.15v-.83l-.07-1.55c-.09-2.11-.19-4.49-.39-6.77a15.63,15.63,0,0,0-.36-2.06L51,10.16l-.15-.7.48.52c5.57,6.08,8.14,12.76,7.86,20.44ZM51.52,10.79a14.51,14.51,0,0,1,.36,1.9c.19,2.32.29,4.64.39,6.79L52.33,21v.85a3.31,3.31,0,0,0,.91,2.85,5.42,5.42,0,0,1,1.23,2.36,11.08,11.08,0,0,0,.42,1.12,2.81,2.81,0,0,0,.37.66c1,.39,2,.77,3,1.1l.5.17C59,22.92,56.61,16.58,51.52,10.79Z"/><path class="cls-1" d="M16.27,8.56H16a30.58,30.58,0,0,1-3.26-.62l-1.24-.27-.63-.15.4-.47C14,3.87,22.24.42,27,.42a8,8,0,0,1,1,.05l.66.07L27.5,2c-.92,1.21-1.79,2.32-2.71,3.49a.91.91,0,0,1-.73.26h-.52A6.19,6.19,0,0,0,18.13,7.9,2.79,2.79,0,0,1,16.27,8.56Zm-4-1.49.61.14a30.25,30.25,0,0,0,3.18.6,2.12,2.12,0,0,0,1.55-.45A6.88,6.88,0,0,1,23.6,5h.46a.62.62,0,0,0,.2,0c.88-1.11,1.75-2.25,2.66-3.49l.33-.43C22.84,1.05,15.28,4.12,12.26,7.07Z"/><path class="cls-1" d="M16.27,8.75h-.32a30.89,30.89,0,0,1-3.27-.62h-.16L11.44,7.9l-.93-.19L11.14,7C13.87,3.73,22.2.22,27,.22a8.12,8.12,0,0,1,1,.05l1,.11L27.65,2.14c-.92,1.22-1.79,2.32-2.71,3.49a1.08,1.08,0,0,1-.87.33h-.53A6,6,0,0,0,18.3,8,3,3,0,0,1,16.27,8.75Zm-5-1.35.29.06,1.08.24h.16A30.55,30.55,0,0,0,16,8.31h.27A2.61,2.61,0,0,0,18,7.74a6.39,6.39,0,0,1,5.56-2.18h.5a.77.77,0,0,0,.57-.14c.91-1.16,1.78-2.32,2.7-3.51L28.27.7H28A7.85,7.85,0,0,0,27,.64C22.28.64,14.1,4.08,11.41,7.21Zm5,.62H16a30.19,30.19,0,0,1-3.17-.6l-1-.22L12.12,7C15.21,3.91,22.89.91,27.24,1h.38l-.6.77c-.9,1.18-1.74,2.32-2.6,3.37l-.08.05a.77.77,0,0,1-.27,0H23.6a6.72,6.72,0,0,0-5.84,2.32,2.24,2.24,0,0,1-1.49.5ZM12.65,7l.26.06a30,30,0,0,0,3.16.6,1.94,1.94,0,0,0,1.4-.39,7.06,7.06,0,0,1,6.19-2.42h.53c.84-1.05,1.67-2.14,2.55-3.31l.14-.19C22.65,1.42,15.77,4.13,12.65,7Z"/><path class="cls-1" d="M30.2,59.8a28.33,28.33,0,0,1-13.86-3.32L15.49,56l2.74-.44c2.1-.34,4.09-.67,6.1-.94h.11a1.93,1.93,0,0,1,1.2.64,6.56,6.56,0,0,0,4.47,2,5.89,5.89,0,0,0,3.19-1,2.21,2.21,0,0,1,1.86.08,21.56,21.56,0,0,1,2,1.13l.89.53.66.38-.7.28A22.16,22.16,0,0,1,30.2,59.8ZM17.65,56.35A28.53,28.53,0,0,0,30.2,59.06,23,23,0,0,0,37,58.15l-.22-.09a21,21,0,0,0-2-1.14,2.13,2.13,0,0,0-.83-.19.6.6,0,0,0-.32.06,6.61,6.61,0,0,1-3.61,1.11,7.28,7.28,0,0,1-5-2.18,1.44,1.44,0,0,0-.7-.44c-2,.27-4,.6-6.08.94Z"/><path class="cls-1" d="M30.2,60a28.36,28.36,0,0,1-13.93-3.35l-1.35-.77,3.27-.53c2-.33,4.06-.67,6.11-.94h.12a2.1,2.1,0,0,1,1.34.7A6.37,6.37,0,0,0,30.08,57a5.71,5.71,0,0,0,3.1-1,2.4,2.4,0,0,1,2,.06,21.67,21.67,0,0,1,2.07,1.15l.15.09.74.43,1,.58-1.08.43A22.36,22.36,0,0,1,30.2,60ZM16,56.07l.42.25A28.22,28.22,0,0,0,30.2,59.6a22,22,0,0,0,7.74-1.21l.33-.13L38,58.09l-.77-.43L37,57.56a21.42,21.42,0,0,0-2-1.12,2,2,0,0,0-1.66-.09,6.08,6.08,0,0,1-3.31,1,6.76,6.76,0,0,1-4.61-2,1.79,1.79,0,0,0-1.07-.59h0c-2,.28-4.09.61-6.08.94ZM30.2,59.26a28.56,28.56,0,0,1-12.64-2.75L17,56.25l1.26-.2c2-.33,4.06-.67,6.09-.94h0a1.55,1.55,0,0,1,.85.5,7.1,7.1,0,0,0,4.85,2.11,6.43,6.43,0,0,0,3.5-1.08.77.77,0,0,1,.42-.09,2.32,2.32,0,0,1,.91.2,21,21,0,0,1,2,1.11l.59.35-.41.13A23,23,0,0,1,30.2,59.26ZM18.28,56.45A28.64,28.64,0,0,0,30.2,58.87a23.43,23.43,0,0,0,6.35-.77,19.43,19.43,0,0,0-1.81-1,1.94,1.94,0,0,0-.77-.17.48.48,0,0,0-.22,0A6.8,6.8,0,0,1,30,58.07a7.48,7.48,0,0,1-5.11-2.22,1.55,1.55,0,0,0-.57-.39c-2,.28-4.06.61-6,.94Z"/><path class="cls-1" d="M58.28,39.82l-4.64-6.9.38-.83.32.12,1.1.39c1.08.39,2.21.77,3.28,1.25a1.59,1.59,0,0,1,.67,1.49c-.15.84-.38,1.69-.62,2.58-.09.36-.19.72-.29,1.1Zm-3.62-6.71L58,38.05l.09-.32c.23-.87.46-1.7.6-2.52a1.05,1.05,0,0,0-.24-.69c-1-.47-2.16-.84-3.23-1.25Z"/><path class="cls-1" d="M58.36,40.25l-4.94-7.31.5-1.08.49.18,1,.36.12,0c1.08.39,2.21.77,3.29,1.26a1.76,1.76,0,0,1,.77,1.7c-.15.85-.38,1.7-.62,2.59-.1.36-.19.73-.29,1.11Zm-4.49-7.38,4.33,6.45.09-.38c.1-.38.19-.77.29-1.1.24-.89.46-1.73.61-2.56a1.41,1.41,0,0,0-.54-1.22c-1.07-.46-2.19-.86-3.27-1.25l-.12,0-1-.36-.15-.05Zm4.2,5.65L54.2,32.73l1.1.39c1.08.39,2.18.77,3.24,1.23a1.15,1.15,0,0,1,.31.91c-.15.82-.37,1.65-.6,2.52Zm-2.91-5,2.76,4.1c.22-.84.43-1.63.57-2.41a1,1,0,0,0-.17-.5c-1-.42-2.1-.81-3.17-1.19Z"/><circle class="cls-1" cx="30.36" cy="51.59" r="3.67"/><circle class="cls-1" cx="23.03" cy="11.25" r="3.67"/><circle class="cls-1" cx="48.7" cy="29.59" r="3.67"/></g></g></g></g></svg>