<svg xmlns="http://www.w3.org/2000/svg" viewBox="0 0 78.75 77.24"><defs><style>.cls-1{fill:#fff;}</style></defs><title>xay_dung_cong_trinh</title><g id="Layer_2" data-name="Layer 2"><g id="Layer_1-2" data-name="Layer 1"><path class="cls-1" d="M39.67,77.12H35.82a4.68,4.68,0,0,1-4.76-4.79v-1c0-.77,0-1.55,0-2.32a29.05,29.05,0,0,1-8-3.38L23,65.7c-.29.31-.59.63-.89.93l-.37.38c-.46.47-.94,1-1.46,1.4a4.61,4.61,0,0,1-6.22-.24Q11.5,65.63,9,63.05a4.6,4.6,0,0,1-.17-6.31c.62-.7,1.3-1.35,1.95-2l.64-.63.07-.06L11,53.13c-.5-1-1-2-1.38-3s-.75-2-1.11-3.1l-.34-1H4.92A4.67,4.67,0,0,1,.15,41.49c0-.8,0-1.6,0-2.37v-.38a1.4,1.4,0,0,1,1.49-1.5H18.3a.92.92,0,0,1,.29.05l.44.13.05.48a20.14,20.14,0,0,0,8.79,17.37,19.41,19.41,0,0,0,12.56,3.56A19.72,19.72,0,0,0,54.32,52.3a20.21,20.21,0,0,0,5.35-14.44v-.63h17a1.62,1.62,0,0,1,1.92,1.93v.66c0,.65,0,1.32,0,2A4.6,4.6,0,0,1,74,46.06H70.43l-.11.37c-.19.62-.38,1.24-.58,1.85A27,27,0,0,1,67,54h0c.77.74,1.52,1.49,2.4,2.39a4.66,4.66,0,0,1,0,6.78l-1.55,1.56L64.58,68a4.65,4.65,0,0,1-6.74,0L56,66.26l-.62-.62A36.39,36.39,0,0,1,47.47,69v.91c0,.92,0,1.86-.05,2.8a4.67,4.67,0,0,1-4.75,4.41ZM22.86,64l.43.27a27.7,27.7,0,0,0,8.16,3.51A1,1,0,0,1,32.31,69c0,.8,0,1.59,0,2.38v1a3.43,3.43,0,0,0,3.53,3.55q3.42,0,6.84,0a3.41,3.41,0,0,0,3.52-3.26c.06-.89.05-1.82,0-2.71V69A1.06,1.06,0,0,1,47,67.82a35.11,35.11,0,0,0,8.16-3.49l.41-.24,1.29,1.3,1.79,1.8a3.49,3.49,0,0,0,5,0L67,63.87l1.55-1.56a3.42,3.42,0,0,0,0-5c-.87-.89-1.61-1.64-2.37-2.36a1.12,1.12,0,0,1-.2-1.56,25.66,25.66,0,0,0,2.58-5.49c.2-.6.38-1.21.57-1.82l.38-1.25H74a3.37,3.37,0,0,0,3.34-3.1c.05-.62,0-1.23,0-1.88v-.67c0-.5-.07-.61-.07-.61a1.35,1.35,0,0,0-.61-.07H60.91a21.32,21.32,0,0,1-5.68,14.66,20.92,20.92,0,0,1-14.72,6.93,20.61,20.61,0,0,1-13.35-3.78,21.23,21.23,0,0,1-9.31-17.81H1.63c-.2,0-.24,0-.25.27v.38c0,.76,0,1.54,0,2.3a3.42,3.42,0,0,0,3.55,3.38H9l.14.42c.17.49.33,1,.48,1.44.35,1.05.68,2.05,1.08,3s.85,1.89,1.34,2.89c.23.46.46.93.69,1.41l.22.46-.4.3-.14.1a1.46,1.46,0,0,0-.21.16l-.64.63c-.64.62-1.29,1.27-1.89,1.93a3.37,3.37,0,0,0,.13,4.61q2.53,2.57,5.1,5.1a3.37,3.37,0,0,0,4.54.18c.48-.41.93-.87,1.38-1.32l.38-.38c.3-.3.58-.6.86-.9Z"/><path class="cls-1" d="M39.67,77.24H35.82a4.81,4.81,0,0,1-4.88-4.91V71.19c0-.69,0-1.38,0-2.07a29.24,29.24,0,0,1-7.86-3.32l-.05.06c-.27.29-.54.58-.82.86l-.37.38c-.43.44-.93.95-1.46,1.4A4.73,4.73,0,0,1,14,68.26C12.37,66.67,10.7,65,8.87,63.14a4.73,4.73,0,0,1-.17-6.49c.64-.71,1.34-1.39,2-2l.64-.63h0l-.42-.85c-.5-1-1-2-1.38-3s-.78-2.09-1.11-3.11l-.07-.2-.24-.72H4.93A4.79,4.79,0,0,1,0,41.49c0-.79,0-1.58,0-2.35v-.41a1.53,1.53,0,0,1,1.61-1.62H18.3a1,1,0,0,1,.32.06l.52.16.06.56c0,7.35,2.92,13.16,8.74,17.28A19.24,19.24,0,0,0,40.43,58.7a19.59,19.59,0,0,0,13.79-6.49,20.09,20.09,0,0,0,5.32-14.35v-.76H76.7a1.74,1.74,0,0,1,2,2.06v.72c0,.63,0,1.29,0,1.94A4.73,4.73,0,0,1,74,46.18H70.52l-.08.28c-.17.58-.37,1.23-.58,1.86A27.12,27.12,0,0,1,67.2,54c.75.72,1.48,1.45,2.33,2.33a4.78,4.78,0,0,1,0,6.95L68,64.84l-3.29,3.29a4.77,4.77,0,0,1-6.92,0l-1.68-1.68-.68-.68a36.46,36.46,0,0,1-7.79,3.28V70c0,.9,0,1.83-.05,2.75a4.79,4.79,0,0,1-4.87,4.53ZM23,65.48l.09.05a29,29,0,0,0,8,3.36l.09,0V69c0,.72,0,1.44,0,2.17v1.13A4.56,4.56,0,0,0,35.83,77q3.42,0,6.85,0a4.55,4.55,0,0,0,4.63-4.3c.06-.91.06-1.83.05-2.73V68.9l.09,0a36.24,36.24,0,0,0,7.91-3.33l.08,0,.81.82L57.92,68a4.52,4.52,0,0,0,6.56,0l3.29-3.28,1.55-1.56a4.54,4.54,0,0,0,0-6.6c-.88-.9-1.62-1.65-2.39-2.39l-.07-.07,0-.09a26.83,26.83,0,0,0,2.69-5.72c.21-.62.4-1.28.58-1.85l.14-.45H74a4.48,4.48,0,0,0,4.43-4.12c.05-.64.05-1.29,0-1.92v-.72a1.5,1.5,0,0,0-1.8-1.81H59.78v.5a20.34,20.34,0,0,1-5.38,14.52,19.84,19.84,0,0,1-14,6.57A19.56,19.56,0,0,1,27.8,55.37,20.25,20.25,0,0,1,19,37.9l0-.38-.36-.11a.8.8,0,0,0-.25,0H1.63A1.27,1.27,0,0,0,.27,38.74v.41c0,.76,0,1.55,0,2.33a4.54,4.54,0,0,0,4.65,4.45H8.25l0,.08.27.81.07.2c.33,1,.68,2.06,1.1,3.09s.88,1.95,1.37,3l.46.94,0,.08-.07.06-.06.06-.64.63c-.61.6-1.31,1.28-1.94,2A4.48,4.48,0,0,0,9,63c1.83,1.85,3.5,3.52,5.11,5.11a4.48,4.48,0,0,0,6,.23c.53-.45,1-.95,1.45-1.39l.37-.38c.28-.28.55-.57.82-.86ZM39.77,76H35.83a3.55,3.55,0,0,1-3.65-3.67v-1c0-.79,0-1.58,0-2.38a.91.91,0,0,0-.77-1,27.8,27.8,0,0,1-8.19-3.53l-.34-.22-.72.76c-.27.29-.55.59-.83.88l-.38.38c-.45.46-.91.92-1.38,1.33a3.49,3.49,0,0,1-4.71-.18c-1.61-1.58-3.28-3.25-5.1-5.1a3.49,3.49,0,0,1-.13-4.78c.6-.67,1.25-1.31,1.88-1.92l.65-.64a1.27,1.27,0,0,1,.2-.15l0,0,.14-.09.32-.24L12.67,54c-.23-.48-.46-1-.69-1.41-.46-.94-.95-1.92-1.35-2.89s-.73-2-1.08-3l-.08-.25-.4-1.18L9,44.94h-4a3.54,3.54,0,0,1-3.67-3.5c0-.79,0-1.6,0-2.31v-.38c0-.34.1-.4.37-.4H18v.12a21.12,21.12,0,0,0,9.26,17.71A20.41,20.41,0,0,0,40.5,59.94a20.8,20.8,0,0,0,14.64-6.89,21.21,21.21,0,0,0,5.65-14.58v-.12H76.7a1.38,1.38,0,0,1,.68.09l0,0a1.4,1.4,0,0,1,.1.69v.71c0,.64,0,1.25,0,1.86A3.49,3.49,0,0,1,74,44.94H69.61l-.37,1.21c-.18.58-.36,1.19-.55,1.77a25.79,25.79,0,0,1-2.59,5.51,1,1,0,0,0,.18,1.4c.77.73,1.51,1.48,2.38,2.37a3.54,3.54,0,0,1,0,5.2l-2,2-2.87,2.87a3.6,3.6,0,0,1-5.17,0l-1.79-1.8L55.6,64.25l-.33.19a35.24,35.24,0,0,1-8.19,3.5.94.94,0,0,0-.72,1v.94c0,.89,0,1.82,0,2.72A3.54,3.54,0,0,1,42.67,76ZM22.84,63.89l.52.33a27.55,27.55,0,0,0,8.12,3.5,1.16,1.16,0,0,1,1,1.25c0,.8,0,1.59,0,2.38v1a3.31,3.31,0,0,0,3.4,3.42c2.2,0,4.44,0,6.84,0a3.29,3.29,0,0,0,3.39-3.14c.06-.89.05-1.81,0-2.7V69A1.19,1.19,0,0,1,47,67.7a35,35,0,0,0,8.13-3.48l.5-.29L57,65.3l1.79,1.8a3.35,3.35,0,0,0,4.82,0l2.88-2.87,2-2a3.3,3.3,0,0,0,0-4.85c-.87-.89-1.6-1.63-2.37-2.36a1.24,1.24,0,0,1-.22-1.71,25.52,25.52,0,0,0,2.57-5.46c.19-.58.38-1.18.55-1.77l.42-1.39H74a3.24,3.24,0,0,0,3.21-3c0-.6,0-1.2,0-1.83v-.71a2,2,0,0,0,0-.52,2.12,2.12,0,0,0-.51,0H61a21.43,21.43,0,0,1-5.71,14.62,21,21,0,0,1-14.81,7,20.67,20.67,0,0,1-13.43-3.81A21.34,21.34,0,0,1,17.72,38.6H1.51a1.21,1.21,0,0,1,0,.14v.38c0,.71,0,1.51,0,2.29a3.3,3.3,0,0,0,3.42,3.26h4.2l.17.5c.14.4.27.8.4,1.19l.08.25c.35,1.05.68,2,1.07,3s.88,1.94,1.34,2.88l.69,1.41.26.55-.49.37-.15.1,0,0a1.13,1.13,0,0,0-.16.12l-.64.63C11,56.36,10.4,57,9.8,57.65a3.24,3.24,0,0,0,.12,4.44c1.83,1.85,3.5,3.52,5.1,5.1a3.24,3.24,0,0,0,4.37.17c.47-.4.92-.86,1.36-1.3l.39-.4c.28-.28.56-.58.83-.87Z"/><path class="cls-1" d="M9.89,30.83a4.47,4.47,0,0,1-1.45-.25,3.85,3.85,0,0,1-2.77-3.15,3.7,3.7,0,0,1,1.55-3.61L9.53,22l4.58-3.59a2.59,2.59,0,0,0,1.09-2.22c0-2.24,0-4.5.06-6.7l0-2.49c0-.09,0-.16,0-.26l.06-.66H25.1V9.85l.69-.5,4.73-3.62,5.7-4.37C38.4-.3,40.3-.3,42.49,1.38l4.8,3.69,11.06,8.47L71,23.22a7.59,7.59,0,0,1,.76.65,3.57,3.57,0,0,1,1.07,3.83,3.9,3.9,0,0,1-3.13,2.69,5.16,5.16,0,0,1-4.35-1.16Q61.15,26,56.91,22.72L45.75,14.17,40.36,10c-.76-.59-1-.59-1.72,0L13.35,29.44A5.82,5.82,0,0,1,9.89,30.83ZM16.53,7.37l0,2.18c0,2.19-.07,4.45-.06,6.67a3.82,3.82,0,0,1-1.56,3.2L10.29,23,8,24.8A2.46,2.46,0,0,0,6.9,27.24a2.61,2.61,0,0,0,1.94,2.16c1.24.42,2.31.15,3.76-1L37.88,9.06a2.63,2.63,0,0,1,1.62-.68,2.74,2.74,0,0,1,1.62.68l5.39,4.13,11.16,8.55Q61.9,25,66.14,28.25a4,4,0,0,0,3.34.93,2.66,2.66,0,0,0,2.2-1.86,2.36,2.36,0,0,0-.77-2.57,6.35,6.35,0,0,0-.64-.54L57.61,14.52,46.54,6l-4.8-3.68C40,1,38.73,1,37,2.35l-5.7,4.36-4.73,3.62c-.34.26-.69.51-1.06.77l-1.62,1.16V7.37Z"/><path class="cls-1" d="M9.89,31A4.58,4.58,0,0,1,8.4,30.7a4,4,0,0,1-2.85-3.24,3.82,3.82,0,0,1,1.6-3.73l2.3-1.8L14,18.34a2.47,2.47,0,0,0,1-2.12c0-2.25,0-4.51.06-6.7l0-2.49c0-.08,0-.16,0-.25L15.26,6h10V9.61l.49-.36L30.22,5.8l.54-.41,5.39-4.12c2.22-1.69,4.2-1.69,6.43,0L47.37,5l11.06,8.47,12.67,9.69a7.69,7.69,0,0,1,.77.66,3.69,3.69,0,0,1,1.1,4,4,4,0,0,1-3.23,2.78,5.24,5.24,0,0,1-4.45-1.19C62.55,27.19,59.73,25,57,23l-.18-.14L45.67,14.27l-5.39-4.13c-.72-.55-.85-.56-1.57,0L13.43,29.54A5.94,5.94,0,0,1,9.89,31Zm5.6-24.7-.05.54c0,.1,0,.17,0,.25l0,2.49c0,2.19-.07,4.45-.06,6.7a2.71,2.71,0,0,1-1.14,2.32L9.6,22.13l-2.3,1.8a3.58,3.58,0,0,0-1.5,3.49,3.73,3.73,0,0,0,2.68,3,4.36,4.36,0,0,0,1.41.24,5.7,5.7,0,0,0,3.39-1.37L38.56,9.94c.82-.63,1.07-.63,1.88,0l5.39,4.13L57,22.62l.18.14c2.72,2.08,5.54,4.24,8.29,6.38a5,5,0,0,0,4.25,1.14,3.78,3.78,0,0,0,3-2.61,3.45,3.45,0,0,0-1-3.71,7.38,7.38,0,0,0-.75-.64L58.29,13.63,47.22,5.16l-4.8-3.69c-2.15-1.64-4-1.64-6.13,0L30.9,5.59,30.37,6l-4.5,3.45-.69.5-.2.14V6.25ZM9.91,29.72a3.41,3.41,0,0,1-1.11-.2,2.72,2.72,0,0,1-2-2.26,2.58,2.58,0,0,1,1.13-2.56l2.3-1.79,4.59-3.59a3.7,3.7,0,0,0,1.52-3.1c0-2.23,0-4.49.06-6.68l0-2.3H24V12l1.51-1.08c.34-.24.66-.47,1-.71l4.73-3.62.14-.11,5.56-4.25c1.81-1.38,3.1-1.38,4.92,0l4.8,3.68,11.07,8.47,12.67,9.69a6.46,6.46,0,0,1,.65.56,2.48,2.48,0,0,1,.8,2.7,2.77,2.77,0,0,1-2.29,1.94,4,4,0,0,1-3.44-1c-2.77-2.15-5.48-4.22-8.48-6.52L46.43,13.28,41,9.15A2.61,2.61,0,0,0,39.5,8.5,2.52,2.52,0,0,0,38,9.16L12.67,28.55A4.58,4.58,0,0,1,9.91,29.72ZM16.65,7.49l0,2.05c0,2.18-.07,4.44-.06,6.67A3.94,3.94,0,0,1,15,19.52l-4.59,3.59L8.07,24.9a2.34,2.34,0,0,0-1,2.32,2.49,2.49,0,0,0,1.86,2.07c1.2.41,2.23.15,3.64-.94L37.8,9a2.74,2.74,0,0,1,1.7-.71A2.84,2.84,0,0,1,41.19,9l5.39,4.13,11.16,8.55c3,2.3,5.71,4.37,8.48,6.52a3.83,3.83,0,0,0,3.24.91,2.54,2.54,0,0,0,2.11-1.77,2.25,2.25,0,0,0-.73-2.45,6.24,6.24,0,0,0-.62-.53L57.53,14.62,46.47,6.15l-4.8-3.68c-1.73-1.32-2.9-1.33-4.62,0L31.49,6.71l-.14.11-4.73,3.62c-.32.24-.64.47-1,.71l-1.9,1.36v-5Z"/><path class="cls-1" d="M41.75,45.32h0l-.27,0-.53-.08-.07-.54V35.75h9.65v2.53c0,1.64,0,3.29,0,4.93a2.15,2.15,0,0,1-2,2l-5.3.09Z"/><path class="cls-1" d="M50.44,32.57H40.92V23h3.59c1.25,0,2.5,0,3.75,0a2.18,2.18,0,0,1,2.14,2.07c0,1.66.06,3.32.09,5l0,1.53a2.53,2.53,0,0,1,0,.28Z"/><path class="cls-1" d="M37.9,32.7H28.36V25.3a2,2,0,0,1,1.93-2.09c1,0,2.08,0,3.13,0H37.9Z"/><path class="cls-1" d="M37.78,45.29l-2.33-.06c-1.8,0-3.59-.1-5.38-.16a2,2,0,0,1-1.68-1.87c-.07-1.74-.11-3.47-.15-5.23l-.06-2.27h9.6Z"/></g></g></svg>