<svg xmlns="http://www.w3.org/2000/svg" viewBox="0 0 69.67 77.5"><defs><style>.cls-1{fill:#fff;}</style></defs><title>dich_vu</title><g id="Layer_2" data-name="Layer 2"><g id="Layer_1-2" data-name="Layer 1"><path class="cls-1" d="M34.82,77.25a9.91,9.91,0,0,1-6.9-3,18.72,18.72,0,0,1-3-3.74,3.77,3.77,0,0,1-2.65-3.61,3.8,3.8,0,1,1,7.6,0,3.75,3.75,0,0,1-.06.63,13.81,13.81,0,0,0,1.87,2.36c2.2,2.17,4.31,2.17,6.5,0A19.31,19.31,0,0,0,42,63.61a50.32,50.32,0,0,0,3.1-11.07l-1.06.6c-1.29.73-2.61,1.49-3.94,2.19a72.29,72.29,0,0,1-18.78,7,33.41,33.41,0,0,1-9.89.82C8,62.9,5.55,62,3.56,60.41A8.75,8.75,0,0,1,.31,52.84a17.25,17.25,0,0,1,3.16-8.77c.84-1.27,1.79-2.49,2.71-3.67.4-.51.8-1,1.2-1.55l.09-.12L6.86,38c-.62-.75-1.23-1.5-1.81-2.27A24.47,24.47,0,0,1,.74,27.53a10.43,10.43,0,0,1,.21-7A9.59,9.59,0,0,1,7.29,15a18.45,18.45,0,0,1,5.1-.84,3.71,3.71,0,0,1,2.32-.83,3.8,3.8,0,1,1-2.57,6.55,12.68,12.68,0,0,0-2.8.45A4.35,4.35,0,0,0,6.27,22.6a4.39,4.39,0,0,0-.09,3.19,20.83,20.83,0,0,0,1.35,3.34,27.65,27.65,0,0,0,3.94,5.54l.4-.36.95-.84A87.63,87.63,0,0,1,32.64,20.57c.87-.42,1.75-.81,2.64-1.19A3.77,3.77,0,0,1,38.73,17a3.8,3.8,0,1,1,0,7.6,3.6,3.6,0,0,1-1-.15A84.57,84.57,0,0,0,18.94,35.76c-.86.68-1.7,1.42-2.51,2.13l-1,.85h0l.85.75c.87.76,1.68,1.48,2.57,2.13,2.07,1.52,4.22,3,6.29,4.46l1.59,1.11a2.86,2.86,0,0,1,1.19,3.48,2.8,2.8,0,0,1-2.61,1.81A2.93,2.93,0,0,1,23.74,52l-.59-.38c-1.48-.95-3-1.92-4.43-3-1.73-1.33-3.44-2.74-5.09-4.11l-2.13-1.76h0l-.49.61c-.57.7-1.15,1.43-1.68,2.16a17.83,17.83,0,0,0-3.15,6.26A7.28,7.28,0,0,0,6,53.45a3.46,3.46,0,0,0,2.55,3.36,12.68,12.68,0,0,0,4.76.8l1.13,0a48.37,48.37,0,0,0,15.72-3.85,84.58,84.58,0,0,0,15.71-8.41.35.35,0,0,0,.2-.32,87.6,87.6,0,0,0,.06-11.55,62.27,62.27,0,0,0-3.55-18.29,22.42,22.42,0,0,0-4-7.1,9.13,9.13,0,0,0-1.45-1.31,3.56,3.56,0,0,0-4.75.09A13.21,13.21,0,0,0,29,11.06a37.11,37.11,0,0,0-3.17,8.06.46.46,0,0,1-.21.27L20.43,22.5a.46.46,0,0,1-.68-.51l.24-.93c1.07-4.17,2.68-10.48,4.66-13.72a18,18,0,0,1,4.13-4.85,9.36,9.36,0,0,1,12.41.21,21.7,21.7,0,0,1,5.41,7.45,50.56,50.56,0,0,1,4,13.09A80.37,80.37,0,0,1,52,36.92c0,1.11.09,2.22.09,3.36v.47a52.3,52.3,0,0,0,8.77-9.39,16.51,16.51,0,0,0,2.69-5.66,4.63,4.63,0,0,0-.17-3.21,4.29,4.29,0,0,0-2.78-2,12,12,0,0,0-2.51-.52A3.78,3.78,0,0,1,53,19.69,3.71,3.71,0,0,1,51.88,17a3.82,3.82,0,0,1,3.76-3.79,3.91,3.91,0,0,1,2.61,1A16.29,16.29,0,0,1,64,15.69a9.23,9.23,0,0,1,5.28,10A21.68,21.68,0,0,1,65.16,35,56.91,56.91,0,0,1,53.33,46.9l-.29.23a6.3,6.3,0,0,1-1,.72c-.48.26-.6.63-.68,1.28a56.6,56.6,0,0,1-4.69,18,22.06,22.06,0,0,1-5.15,7.32,9.89,9.89,0,0,1-6.34,2.8ZM26,64a2.87,2.87,0,0,0-.74,5.65.46.46,0,0,1,.27.2,17.94,17.94,0,0,0,3,3.7,8.87,8.87,0,0,0,6.6,2.74,9,9,0,0,0,5.76-2.56,21.16,21.16,0,0,0,4.93-7A55.69,55.69,0,0,0,50.45,49a2.27,2.27,0,0,1,1.15-2,5.43,5.43,0,0,0,.85-.62l.3-.25a56.08,56.08,0,0,0,11.65-11.7,20.79,20.79,0,0,0,4-8.93,8.33,8.33,0,0,0-4.76-9A15.49,15.49,0,0,0,58,15.16a.46.46,0,0,1-.3-.14,2.93,2.93,0,0,0-2-.87h0A2.9,2.9,0,0,0,52.8,17a2.78,2.78,0,0,0,.82,2,2.93,2.93,0,0,0,4,.08A.46.46,0,0,1,58,19a13.1,13.1,0,0,1,2.9.58,5.15,5.15,0,0,1,3.31,2.51,5.61,5.61,0,0,1,.21,3.82,17.55,17.55,0,0,1-2.88,6,48.75,48.75,0,0,1-9.05,9.6L51.9,42l-.15.12a.46.46,0,0,1-.75-.36V40.28c0-1.14,0-2.24,0-3.34a79.29,79.29,0,0,0-1.28-13.52,49.69,49.69,0,0,0-4-12.86,20.82,20.82,0,0,0-5.18-7.14,8.88,8.88,0,0,0-5.71-2.29,8.85,8.85,0,0,0-5.53,2.09,17.08,17.08,0,0,0-3.91,4.61c-1.88,3.09-3.52,9.44-4.51,13.32L25,18.7a37.68,37.68,0,0,1,3.2-8.08A14,14,0,0,1,31.85,6.1,4.51,4.51,0,0,1,37.71,6,10,10,0,0,1,39.3,7.44a23.26,23.26,0,0,1,4.13,7.39A63.17,63.17,0,0,1,47,33.39,88.86,88.86,0,0,1,47,45.07a1.26,1.26,0,0,1-.6,1,85.57,85.57,0,0,1-15.89,8.5,49.22,49.22,0,0,1-16,3.91l-1.18,0a13.57,13.57,0,0,1-5.09-.86,4.35,4.35,0,0,1-3.14-4.21,8.22,8.22,0,0,1,.21-1.88A18.66,18.66,0,0,1,8.57,45c.55-.75,1.14-1.49,1.71-2.2l.77-1a.46.46,0,0,1,.65-.08l.37.29,2.14,1.77c1.65,1.36,3.35,2.77,5.07,4.09,1.39,1.06,2.9,2,4.37,3l.59.38a2,2,0,0,0,1.08.32,1.88,1.88,0,0,0,1.75-1.23,2,2,0,0,0-.86-2.38l-1.59-1.11c-2.08-1.45-4.23-2.95-6.31-4.48-.92-.67-1.79-1.44-2.63-2.18l-1.21-1a.46.46,0,0,1-.16-.32.46.46,0,0,1,.12-.34l.13-.14a2.85,2.85,0,0,1,.3-.31l1-.84c.82-.72,1.67-1.46,2.54-2.16a85.49,85.49,0,0,1,19.2-11.46.46.46,0,0,1,.32,0,2.78,2.78,0,0,0,.87.15,2.88,2.88,0,0,0,0-5.75h0a2.87,2.87,0,0,0-2.7,1.92.46.46,0,0,1-.25.27c-.93.4-1.87.81-2.78,1.25A86.65,86.65,0,0,0,13.42,34.17l-.94.83-.75.66a.46.46,0,0,1-.65,0,29.61,29.61,0,0,1-4.38-6.08A21.78,21.78,0,0,1,5.3,26.06a5.28,5.28,0,0,1,.13-3.84,5.17,5.17,0,0,1,3.66-2.74A13.94,13.94,0,0,1,12.3,19a.45.45,0,0,1,.36.14,2.86,2.86,0,1,0,2.1-4.79h0a2.8,2.8,0,0,0-1.88.69.46.46,0,0,1-.29.1,17.75,17.75,0,0,0-5,.8,8.72,8.72,0,0,0-5.77,5,9.55,9.55,0,0,0-.18,6.38,23.57,23.57,0,0,0,4.16,7.88c.57.76,1.18,1.49,1.78,2.24l.86,1.06a.46.46,0,0,1,0,.59c-.14.16-.23.26-.31.37-.4.52-.8,1-1.21,1.56C6,42.14,5.06,43.34,4.24,44.59a16.38,16.38,0,0,0-3,8.3,7.87,7.87,0,0,0,2.92,6.81C6,61.2,8.26,62,11.55,62.27a32.66,32.66,0,0,0,9.62-.8,71.37,71.37,0,0,0,18.55-7c1.31-.69,2.64-1.44,3.92-2.17l1.87-1.06a.46.46,0,0,1,.69.4,1.52,1.52,0,0,1,0,.3,52.46,52.46,0,0,1-3.29,12,20.16,20.16,0,0,1-4.12,6.61c-2.54,2.53-5.23,2.53-7.79,0a15,15,0,0,1-2.1-2.68.46.46,0,0,1-.06-.35,2.79,2.79,0,0,0,.08-.62A2.91,2.91,0,0,0,26,64Z"/><path class="cls-1" d="M34.82,77.5a10.14,10.14,0,0,1-7.07-3.06,18.78,18.78,0,0,1-3-3.71A4,4,0,0,1,22,66.91a4,4,0,1,1,8,.6,13.3,13.3,0,0,0,1.78,2.24c2.1,2.08,4.06,2.07,6.14,0a19.08,19.08,0,0,0,3.87-6.23,49,49,0,0,0,3-10.49l-.6.34c-1.22.69-2.59,1.48-4,2.19a72.53,72.53,0,0,1-18.85,7.06,33.4,33.4,0,0,1-10,.82c-3.53-.29-6-1.17-8-2.84A9,9,0,0,1,.06,52.83a17.51,17.51,0,0,1,3.2-8.89C4.1,42.67,5.05,41.45,6,40.27c.41-.52.8-1,1.19-1.53l-.45-.55c-.61-.74-1.26-1.53-1.85-2.32A24.73,24.73,0,0,1,.5,27.6a10.68,10.68,0,0,1,.22-7.14A9.82,9.82,0,0,1,7.22,14.8a18.62,18.62,0,0,1,5.09-.85,4,4,0,0,1,2.41-.83,4.1,4.1,0,0,1,4.08,4.07,4,4,0,0,1-6.74,3,12.21,12.21,0,0,0-2.64.44A4.14,4.14,0,0,0,6.5,22.7a4.15,4.15,0,0,0-.08,3A20.57,20.57,0,0,0,7.75,29a27,27,0,0,0,3.74,5.3l.34-.3.82-.72A87.94,87.94,0,0,1,32.54,20.34c.74-.35,1.55-.72,2.56-1.15a4,4,0,0,1,3.64-2.4,4,4,0,1,1,0,8.1,3.79,3.79,0,0,1-1-.13A84.32,84.32,0,0,0,19.09,36c-.87.69-1.74,1.45-2.5,2.13l-.77.67.63.56c.86.75,1.67,1.47,2.55,2.12,2.08,1.53,4.22,3,6.29,4.46L26.88,47a3.1,3.1,0,0,1,1.28,3.77,3,3,0,0,1-2.84,2,3.18,3.18,0,0,1-1.71-.51L23,51.84c-1.48-.95-3-1.92-4.45-3-1.73-1.33-3.45-2.75-5.1-4.11l-.22-.19-1.71-1.41-.33.41c-.53.66-1.13,1.41-1.68,2.15a17.62,17.62,0,0,0-3.11,6.17,7.08,7.08,0,0,0-.18,1.61,3.2,3.2,0,0,0,2.39,3.13,12.43,12.43,0,0,0,4.67.78l1.12,0a48.1,48.1,0,0,0,15.64-3.83,84.29,84.29,0,0,0,15.67-8.38L45.8,45a.24.24,0,0,0,0-.07,87.47,87.47,0,0,0,.06-11.52,62,62,0,0,0-3.54-18.22,22.17,22.17,0,0,0-3.91-7A8.87,8.87,0,0,0,37,6.94,3.32,3.32,0,0,0,32.56,7a13,13,0,0,0-3.31,4.15,36.79,36.79,0,0,0-3.14,8,.71.71,0,0,1-.32.42l-5.23,3.11a.71.71,0,0,1-1.05-.79l.24-.92c1.07-4.2,2.69-10.52,4.69-13.79A18.22,18.22,0,0,1,28.61,2.3a9.61,9.61,0,0,1,12.72.22A21.93,21.93,0,0,1,46.81,10,50.82,50.82,0,0,1,50.87,23.2a80.73,80.73,0,0,1,1.39,13.72c0,.5,0,1,0,1.52s0,1.16,0,1.76a51,51,0,0,0,8.31-9,16.32,16.32,0,0,0,2.66-5.57,4.4,4.4,0,0,0-.15-3,4.07,4.07,0,0,0-2.63-1.91,11.66,11.66,0,0,0-2.35-.49,4,4,0,0,1-5.4-.33A4,4,0,0,1,51.63,17a4.07,4.07,0,0,1,4-4,4.15,4.15,0,0,1,2.72,1,16.46,16.46,0,0,1,5.76,1.45,9.48,9.48,0,0,1,5.42,10.26,21.93,21.93,0,0,1-4.18,9.43A57.19,57.19,0,0,1,53.48,47.1l-.28.23a6.49,6.49,0,0,1-1,.75c-.35.19-.47.43-.55,1.08A56.86,56.86,0,0,1,46.9,67.22a22.27,22.27,0,0,1-5.21,7.4,10.13,10.13,0,0,1-6.49,2.86ZM26,63.36a3.57,3.57,0,0,0-3.51,3.55A3.5,3.5,0,0,0,25,70.28l.09,0,0,.08a18.41,18.41,0,0,0,3,3.69A9.49,9.49,0,0,0,35.18,77a9.65,9.65,0,0,0,6.18-2.74A21.8,21.8,0,0,0,46.45,67a56.37,56.37,0,0,0,4.67-17.9,1.63,1.63,0,0,1,.8-1.47,6,6,0,0,0,.95-.68l.3-.25A56.74,56.74,0,0,0,65,34.86a21.46,21.46,0,0,0,4.1-9.21,9,9,0,0,0-5.14-9.74,16,16,0,0,0-5.68-1.41h-.09l-.06-.06a3.66,3.66,0,0,0-2.45-1A3.57,3.57,0,0,0,52.13,17a3.45,3.45,0,0,0,1,2.48,3.53,3.53,0,0,0,4.81.23l.08-.07h.11a12.19,12.19,0,0,1,2.56.53,4.5,4.5,0,0,1,2.92,2.17,4.86,4.86,0,0,1,.19,3.37,16.78,16.78,0,0,1-2.73,5.74,52.56,52.56,0,0,1-8.81,9.44l-.42.36v-1c0-.62,0-1.22,0-1.82s0-1,0-1.53a80.23,80.23,0,0,0-1.38-13.63,50.29,50.29,0,0,0-4-13A21.46,21.46,0,0,0,41,2.9a9.13,9.13,0,0,0-12.09-.21,17.7,17.7,0,0,0-4.07,4.78c-2,3.21-3.56,9.49-4.63,13.65l-.24.94a.21.21,0,0,0,.08.22.21.21,0,0,0,.23,0l5.23-3.11a.22.22,0,0,0,.1-.12,37.24,37.24,0,0,1,3.19-8.12,13.43,13.43,0,0,1,3.45-4.31,3.8,3.8,0,0,1,5.05-.09A9.38,9.38,0,0,1,38.8,7.88a22.63,22.63,0,0,1,4,7.18,62.54,62.54,0,0,1,3.57,18.37A87.81,87.81,0,0,1,46.31,45a.58.58,0,0,1-.31.51A84.85,84.85,0,0,1,30.24,54a48.62,48.62,0,0,1-15.81,3.87l-1.15,0A12.91,12.91,0,0,1,8.44,57a3.69,3.69,0,0,1-2.71-3.59,7.55,7.55,0,0,1,.19-1.72,18.06,18.06,0,0,1,3.19-6.35c.55-.76,1.16-1.51,1.69-2.17l.65-.8.2.16,1.88,1.55.25.21c1.65,1.37,3.36,2.78,5.09,4.1,1.42,1.09,2.94,2.06,4.42,3l.59.38a2.68,2.68,0,0,0,1.44.43,2.55,2.55,0,0,0,2.38-1.65,2.62,2.62,0,0,0-1.1-3.18L25,46.29c-2.07-1.44-4.21-2.93-6.3-4.47-.9-.66-1.72-1.38-2.58-2.14l-.85-.75-.19-.18.24-.23.94-.83c.77-.67,1.64-1.44,2.52-2.14a84.9,84.9,0,0,1,18.89-11.3l.08,0,.09,0a3.32,3.32,0,0,0,.92.14,3.56,3.56,0,0,0,3.55-3.53,3.6,3.6,0,0,0-3.59-3.56,3.5,3.5,0,0,0-3.22,2.19l0,.09-.09,0c-1,.45-1.87.82-2.63,1.18A87.39,87.39,0,0,0,13,33.67l-.82.72-.72.64-.17-.19a28.12,28.12,0,0,1-4-5.59,21,21,0,0,1-1.36-3.38A4.63,4.63,0,0,1,6,22.5a4.58,4.58,0,0,1,3.23-2.37,12.89,12.89,0,0,1,2.86-.46h.11l.08.08a3.54,3.54,0,0,0,6-2.56,3.6,3.6,0,0,0-3.58-3.56,3.48,3.48,0,0,0-2.16.78l-.06.05h-.08a18.24,18.24,0,0,0-5,.83,9.36,9.36,0,0,0-6.18,5.37A10.19,10.19,0,0,0,1,27.46a24.23,24.23,0,0,0,4.27,8.1c.59.78,1.23,1.57,1.8,2.26l.74.91L7.58,39c-.4.52-.8,1-1.2,1.55-.93,1.19-1.87,2.4-2.7,3.65A17,17,0,0,0,.56,52.85a8.51,8.51,0,0,0,3.16,7.36c1.95,1.6,4.34,2.44,7.77,2.72a33.12,33.12,0,0,0,9.82-.81,72,72,0,0,0,18.72-7c1.35-.71,2.72-1.49,3.94-2.18l1.53-.87-.09.52A50.42,50.42,0,0,1,42.28,63.7a19.56,19.56,0,0,1-4,6.39c-2.29,2.29-4.53,2.29-6.85,0a14,14,0,0,1-1.9-2.41l-.05-.08,0-.1a3.55,3.55,0,0,0,.05-.58A3.61,3.61,0,0,0,26,63.36Zm8.81,13.21a9.26,9.26,0,0,1-6.41-2.81,18.18,18.18,0,0,1-3-3.75.21.21,0,0,0-.12-.09A3.12,3.12,0,0,1,26,63.78h0a3.16,3.16,0,0,1,3.11,3.14,3,3,0,0,1-.08.67.21.21,0,0,0,0,.16,14.77,14.77,0,0,0,2.06,2.64c2.48,2.45,5,2.44,7.44,0a19.91,19.91,0,0,0,4.07-6.53,52.2,52.2,0,0,0,3.27-11.93,1.34,1.34,0,0,0,0-.24.21.21,0,0,0-.31-.19l-1.87,1.06c-1.21.69-2.59,1.48-3.92,2.18a71.61,71.61,0,0,1-18.61,7,32.81,32.81,0,0,1-9.7.8C8.19,62.24,5.87,61.43,4,59.89a8.11,8.11,0,0,1-3-7,16.62,16.62,0,0,1,3-8.43C4.86,43.19,5.8,42,6.71,40.82c.41-.52.81-1,1.21-1.56l.31-.37a.21.21,0,0,0,0-.27l-.86-1.06c-.61-.75-1.22-1.49-1.79-2.25a23.81,23.81,0,0,1-4.2-8,9.8,9.8,0,0,1,.19-6.54A9,9,0,0,1,7.5,15.68a18,18,0,0,1,5.08-.81.22.22,0,0,0,.13,0,3,3,0,0,1,2-.75A3.1,3.1,0,0,1,17,15a3.06,3.06,0,0,1,.9,2.19,3.12,3.12,0,0,1-5.4,2.1.2.2,0,0,0-.16-.07,13.71,13.71,0,0,0-3.16.49,5,5,0,0,0-3.5,2.6A5,5,0,0,0,5.54,26a21.55,21.55,0,0,0,1.39,3.45,29.45,29.45,0,0,0,4.34,6,.21.21,0,0,0,.15.07.19.19,0,0,0,.15-.05l1-.87.71-.63A86.9,86.9,0,0,1,32.93,21.17c1-.46,1.91-.87,2.79-1.25a.21.21,0,0,0,.12-.12A3.12,3.12,0,1,1,38.76,24a3,3,0,0,1-.95-.17.23.23,0,0,0-.15,0A85.28,85.28,0,0,0,18.52,35.23c-.87.7-1.72,1.44-2.53,2.15l-1,.83a2.55,2.55,0,0,0-.28.29l-.13.14a.21.21,0,0,0-.06.16.21.21,0,0,0,.07.15L15.84,40c.85.74,1.71,1.5,2.61,2.16,2.1,1.54,4.34,3.1,6.31,4.47l1.59,1.11a2.19,2.19,0,0,1,.95,2.68,2.13,2.13,0,0,1-2,1.38,2.26,2.26,0,0,1-1.21-.36l-.59-.38c-1.49-.95-3-1.91-4.38-3C17.4,46.77,15.7,45.36,14,44l-2.14-1.76-.36-.29a.21.21,0,0,0-.29,0l-.77,1c-.54.67-1.15,1.43-1.71,2.19a18.46,18.46,0,0,0-3.26,6.5,8,8,0,0,0-.2,1.82,4.12,4.12,0,0,0,3,4,13.34,13.34,0,0,0,5,.84q.58,0,1.17,0A49,49,0,0,0,30.4,54.35a85.33,85.33,0,0,0,15.84-8.47,1,1,0,0,0,.49-.83,88.3,88.3,0,0,0,.06-11.64A62.91,62.91,0,0,0,43.2,14.92a23,23,0,0,0-4.08-7.31A9.73,9.73,0,0,0,37.56,6.2,4.27,4.27,0,0,0,32,6.3a13.8,13.8,0,0,0-3.56,4.44,37.36,37.36,0,0,0-3.17,8l0,.1-4.72,2.8.15-.59c1-3.83,2.62-10.23,4.54-13.39a17.36,17.36,0,0,1,4-4.67A9.1,9.1,0,0,1,34.87.87a9.11,9.11,0,0,1,5.87,2.35A21.06,21.06,0,0,1,46,10.44a49.91,49.91,0,0,1,4,12.92,79.45,79.45,0,0,1,1.29,13.56c0,1.1,0,2.21,0,3.35v1.43a.21.21,0,0,0,.34.17l.15-.12.58-.47a48.51,48.51,0,0,0,9-9.55,17.31,17.31,0,0,0,2.84-5.89A5.37,5.37,0,0,0,64,22.2a4.93,4.93,0,0,0-3.16-2.38A12.86,12.86,0,0,0,58,19.25a.21.21,0,0,0-.16.05,3.18,3.18,0,0,1-4.37-.09A3,3,0,0,1,52.55,17a3.12,3.12,0,0,1,5.36-2.19.21.21,0,0,0,.14.06,15.73,15.73,0,0,1,5.69,1.38,8.57,8.57,0,0,1,4.9,9.29,21,21,0,0,1-4,9,56.27,56.27,0,0,1-11.7,11.75l-.3.25a5.76,5.76,0,0,1-.89.65,2,2,0,0,0-1,1.79,56,56,0,0,1-4.63,17.78,21.4,21.4,0,0,1-5,7.11,9.25,9.25,0,0,1-5.92,2.63ZM26,64.28a2.67,2.67,0,0,0-2.64,2.64,2.64,2.64,0,0,0,2,2.52.7.7,0,0,1,.42.31,17.72,17.72,0,0,0,2.94,3.65,8.71,8.71,0,0,0,6.42,2.67,8.76,8.76,0,0,0,5.6-2.5,20.92,20.92,0,0,0,4.87-6.95A55.45,55.45,0,0,0,50.2,49a2.51,2.51,0,0,1,1.28-2.17,5.3,5.3,0,0,0,.81-.6L52.6,46A55.79,55.79,0,0,0,64.2,34.33a20.55,20.55,0,0,0,3.94-8.82,8.08,8.08,0,0,0-4.62-8.76A15.25,15.25,0,0,0,58,15.41a.71.71,0,0,1-.46-.21A2.62,2.62,0,0,0,53.05,17a2.54,2.54,0,0,0,.75,1.82,2.68,2.68,0,0,0,3.67.08.69.69,0,0,1,.55-.19,13.33,13.33,0,0,1,3,.59A5.38,5.38,0,0,1,64.43,22a5.83,5.83,0,0,1,.23,4A17.77,17.77,0,0,1,61.75,32a49,49,0,0,1-9.1,9.64l-.59.48-.15.12a.71.71,0,0,1-1.15-.56V40.28c0-1.14,0-2.24,0-3.34a79,79,0,0,0-1.28-13.48,49.38,49.38,0,0,0-3.94-12.8A20.59,20.59,0,0,0,40.42,3.6a8.63,8.63,0,0,0-5.55-2.23,8.61,8.61,0,0,0-5.37,2A16.84,16.84,0,0,0,25.64,8c-1.79,2.94-3.4,9-4.33,12.67l3.5-2.08a37.81,37.81,0,0,1,3.19-8,14.27,14.27,0,0,1,3.7-4.6,4.73,4.73,0,0,1,6.15-.1,10.24,10.24,0,0,1,1.63,1.48,23.53,23.53,0,0,1,4.18,7.47,63.43,63.43,0,0,1,3.63,18.63,89,89,0,0,1-.07,11.71,1.51,1.51,0,0,1-.71,1.21,85.9,85.9,0,0,1-15.94,8.52,49.49,49.49,0,0,1-16.1,3.93c-.4,0-.79,0-1.19,0A13.8,13.8,0,0,1,8.1,57.9a4.58,4.58,0,0,1-3.29-4.44A8.45,8.45,0,0,1,5,51.51a18.9,18.9,0,0,1,3.34-6.68c.56-.77,1.18-1.53,1.72-2.21l.77-1a.72.72,0,0,1,1-.12l.37.29,2.15,1.77C16,45,17.71,46.37,19.43,47.69c1.37,1.05,2.87,2,4.32,2.94l.62.4a1.76,1.76,0,0,0,.94.28,1.63,1.63,0,0,0,1.52-1.07,1.7,1.7,0,0,0-.77-2.09L24.48,47c-2-1.37-4.21-2.93-6.32-4.48-.92-.68-1.79-1.44-2.63-2.18l-1.22-1.06a.71.71,0,0,1-.06-1l.12-.14a3.19,3.19,0,0,1,.33-.34l1-.83c.82-.72,1.67-1.46,2.55-2.17a85.78,85.78,0,0,1,19.26-11.5.72.72,0,0,1,.5,0,2.51,2.51,0,0,0,.79.14,2.63,2.63,0,1,0,0-5.25A2.6,2.6,0,0,0,36.31,20a.71.71,0,0,1-.39.41c-.88.38-1.82.79-2.77,1.25A86.44,86.44,0,0,0,13.59,34.36l-.71.63-1,.87a.69.69,0,0,1-.51.18.7.7,0,0,1-.49-.24,29.89,29.89,0,0,1-4.41-6.13,22,22,0,0,1-1.42-3.53,5.52,5.52,0,0,1,.14-4A5.39,5.39,0,0,1,9,19.24a14.19,14.19,0,0,1,3.27-.51.7.7,0,0,1,.55.22,2.62,2.62,0,0,0,4.53-1.76,2.56,2.56,0,0,0-.75-1.84,2.6,2.6,0,0,0-1.86-.78,2.56,2.56,0,0,0-1.72.63.7.7,0,0,1-.45.16,17.52,17.52,0,0,0-4.93.78A8.49,8.49,0,0,0,2,21a9.32,9.32,0,0,0-.17,6.22A23.31,23.31,0,0,0,6,35c.56.75,1.17,1.49,1.76,2.21l.88,1.08a.71.71,0,0,1,0,.91c-.14.16-.22.26-.3.35-.4.53-.8,1-1.21,1.56-.9,1.16-1.84,2.35-2.66,3.59a16.14,16.14,0,0,0-3,8.18,7.63,7.63,0,0,0,2.83,6.6C6.1,61,8.34,61.75,11.57,62a32.29,32.29,0,0,0,9.55-.8A71.11,71.11,0,0,0,39.6,54.29c1.33-.7,2.7-1.48,3.91-2.17l1.87-1.06a.7.7,0,0,1,.71,0,.71.71,0,0,1,.35.61,1.63,1.63,0,0,1,0,.33,52.72,52.72,0,0,1-3.3,12A20.38,20.38,0,0,1,39,70.75c-2.66,2.64-5.47,2.65-8.15,0A15.25,15.25,0,0,1,28.67,68a.71.71,0,0,1-.09-.54,2.54,2.54,0,0,0,.07-.56A2.66,2.66,0,0,0,26,64.28Z"/><path class="cls-1" d="M26,38.73a8.85,8.85,0,1,0,8.9-8.85A8.88,8.88,0,0,0,26,38.73Z"/><path class="cls-1" d="M34.85,47.83h0a9.08,9.08,0,0,1-6.48-2.75,8.85,8.85,0,0,1-2.59-6.36,9.25,9.25,0,0,1,2.82-6.57,8.82,8.82,0,0,1,6.34-2.53,9.1,9.1,0,0,1-.05,18.2Zm-.1-17.7a8.34,8.34,0,0,0-5.84,2.39,8.75,8.75,0,0,0-2.66,6.21h0a8.35,8.35,0,0,0,2.45,6,8.59,8.59,0,0,0,6.13,2.6h0a8.6,8.6,0,0,0,0-17.2Z"/><path class="cls-1" d="M55.46,63.25l-.71,0a2.83,2.83,0,0,1-2.8-3,2.87,2.87,0,0,1,3-2.7c1.37,0,3-.09,4.53-.27a5.87,5.87,0,0,0,3-1.2c1.13-.87,1.49-2.06,1.18-3.84a12.4,12.4,0,0,0-1.41-3.83A3.8,3.8,0,1,1,67,44.75a3.05,3.05,0,0,1,0,.41,16.66,16.66,0,0,1,2.43,7.14c.4,4.78-2,8.43-6.67,10a18.71,18.71,0,0,1-5.83.93h-1.4Zm7.71-21.4a2.87,2.87,0,0,0-.56,5.7.46.46,0,0,1,.31.23,13.46,13.46,0,0,1,1.61,4.3c.37,2.11-.13,3.65-1.52,4.73a6.88,6.88,0,0,1-3.42,1.39c-1.6.19-3.22.24-4.61.28a2,2,0,0,0-2.11,1.82,1.92,1.92,0,0,0,1.94,2l.66,0h1.4a17.73,17.73,0,0,0,5.53-.88,8.34,8.34,0,0,0,6-9.06A15.87,15.87,0,0,0,66,45.49a.46.46,0,0,1-.06-.31,2.79,2.79,0,0,0-2.81-3.32Z"/><path class="cls-1" d="M55.46,63.5h0l-.73,0a3.07,3.07,0,0,1-3-3.24,3.11,3.11,0,0,1,3.25-2.94c1.37,0,3-.09,4.51-.27a5.63,5.63,0,0,0,2.84-1.15c1-.81,1.38-1.92,1.08-3.6A12,12,0,0,0,62,48.62a4,4,0,1,1,5.16-3.87,3,3,0,0,1,0,.35,16.83,16.83,0,0,1,2.42,7.17c.41,4.91-2.08,8.65-6.83,10.27a19,19,0,0,1-5.91.95h-1.4Zm7.65-22.32a3.55,3.55,0,0,0-.84,7l.11,0,.05.1a12.6,12.6,0,0,1,1.44,3.91c.33,1.89-.06,3.15-1.27,4.08a6.11,6.11,0,0,1-3.09,1.25c-1.58.18-3.18.24-4.55.27a2.62,2.62,0,0,0-2.77,2.46A2.59,2.59,0,0,0,54.76,63l.7,0h1.41a18.44,18.44,0,0,0,5.74-.92c4.52-1.54,6.88-5.09,6.5-9.75a16.41,16.41,0,0,0-2.4-7l0-.08v-.09a2.79,2.79,0,0,0,0-.38A3.6,3.6,0,0,0,63.11,41.19Zm-7.65,21.4-.68,0a2.16,2.16,0,0,1-2.17-2.29A2.19,2.19,0,0,1,55,58.23c1.39,0,3-.09,4.59-.28a6.62,6.62,0,0,0,3.3-1.33c1.31-1,1.78-2.48,1.43-4.49A13.22,13.22,0,0,0,62.7,47.9a.21.21,0,0,0-.14-.1,3.12,3.12,0,0,1,.61-6.19h0a3.15,3.15,0,0,1,3.11,3.14,3,3,0,0,1,0,.45.23.23,0,0,0,0,.17,16.12,16.12,0,0,1,2.43,7c.37,4.45-1.9,7.85-6.21,9.32a18,18,0,0,1-5.61.9h-1.4Zm7.71-20.48a2.62,2.62,0,0,0-.51,5.2.7.7,0,0,1,.48.35A13.69,13.69,0,0,1,64.78,52c.38,2.21-.14,3.83-1.61,5a7.11,7.11,0,0,1-3.55,1.44c-1.61.19-3.24.24-4.64.28a1.72,1.72,0,0,0-1.87,1.58,1.66,1.66,0,0,0,1.7,1.77l.65,0h1.4a17.5,17.5,0,0,0,5.45-.87,8.11,8.11,0,0,0,5.88-8.81,15.63,15.63,0,0,0-2.36-6.78.71.71,0,0,1-.09-.47,2.79,2.79,0,0,0,0-.4A2.65,2.65,0,0,0,63.16,42.11Z"/><ellipse class="cls-1" cx="14.72" cy="17.23" rx="3.35" ry="3.14"/><ellipse class="cls-1" cx="38.66" cy="20.91" rx="3.35" ry="3.14"/><ellipse class="cls-1" cx="25.77" cy="66.96" rx="3.35" ry="3.14"/><ellipse class="cls-1" cx="62.93" cy="44.67" rx="3.22" ry="3.24"/><ellipse class="cls-1" cx="55.24" cy="17.23" rx="3.35" ry="3.14"/></g></g></svg>